<?xml version="1.0" standalone="no"?>
<!DOCTYPE svg PUBLIC "-//W3C//DTD SVG 20010904//EN"
 "http://www.w3.org/TR/2001/REC-SVG-20010904/DTD/svg10.dtd">
<svg version="1.0" xmlns="http://www.w3.org/2000/svg"
 width="193.000000pt" height="193.000000pt" viewBox="0 0 193.000000 193.000000"
 preserveAspectRatio="xMidYMid meet">
<metadata>
Created by potrace 1.16, written by Peter Selinger 2001-2019
</metadata>
<g transform="translate(0.000000,193.000000) scale(0.100000,-0.100000)"
fill="#2f394e" stroke="none">
<path d="M492 1918 c-9 -9 -12 -233 -12 -948 0 -895 1 -938 18 -953 17 -15 64
-17 465 -17 434 0 448 1 467 20 20 20 20 33 20 948 0 887 -1 930 -18 945 -17
15 -64 17 -473 17 -341 0 -458 -3 -467 -12z m888 -953 l0 -895 -415 0 -415 0
0 895 0 895 415 0 415 0 0 -895z"/>
<path d="M840 1775 l0 -35 125 0 125 0 0 35 0 35 -125 0 -125 0 0 -35z"/>
<path d="M602 1058 l3 -633 78 -3 77 -3 0 36 c0 35 0 35 -45 35 l-45 0 0 565
0 565 45 0 c45 0 45 0 45 35 l0 35 -80 0 -80 0 2 -632z"/>
<path d="M810 1655 l0 -35 155 0 155 0 0 35 0 35 -155 0 -155 0 0 -35z"/>
<path d="M1170 1655 c0 -35 0 -35 45 -35 l45 0 0 -565 0 -565 -45 0 c-45 0
-45 0 -45 -35 l0 -35 69 0 c46 0 72 5 80 14 8 9 10 183 9 632 l-3 619 -77 3
-78 3 0 -36z"/>
<path d="M767 1392 c-26 -26 -47 -57 -47 -68 0 -11 23 -42 50 -69 l50 -49 27
27 27 27 -34 35 -34 35 34 35 c33 34 33 35 15 55 -10 11 -23 20 -29 20 -7 0
-33 -22 -59 -48z"/>
<path d="M1077 1422 c-23 -25 -22 -34 13 -67 l30 -29 -32 -33 -32 -33 24 -25
24 -25 53 52 c29 29 53 59 53 68 0 17 -89 110 -106 110 -6 0 -18 -8 -27 -18z"/>
<path d="M930 1055 l0 -35 125 0 125 0 0 35 0 35 -125 0 -125 0 0 -35z"/>
<path d="M750 935 l0 -35 125 0 125 0 0 35 0 35 -125 0 -125 0 0 -35z"/>
<path d="M930 815 l0 -35 125 0 125 0 0 35 0 35 -125 0 -125 0 0 -35z"/>
<path d="M750 695 l0 -35 125 0 125 0 0 35 0 35 -125 0 -125 0 0 -35z"/>
<path d="M810 455 l0 -35 155 0 155 0 0 35 0 35 -155 0 -155 0 0 -35z"/>
<path d="M898 354 c-78 -42 -76 -178 2 -219 35 -18 86 -19 120 -2 34 17 70 74
70 112 0 38 -36 95 -70 112 -33 17 -89 16 -122 -3z"/>
<path d="M2 968 l3 -783 213 -3 212 -2 0 35 0 35 -180 0 -180 0 0 595 0 595
180 0 180 0 0 35 0 35 -180 0 -180 0 0 85 0 85 180 0 180 0 0 35 0 35 -215 0
-215 0 2 -782z"/>
<path d="M1500 1715 l0 -35 180 0 180 0 0 -85 0 -85 -180 0 -180 0 0 -35 0
-35 180 0 180 0 0 -595 0 -595 -180 0 -180 0 0 -35 0 -35 213 2 212 3 0 780 0
780 -212 3 -213 2 0 -35z"/>
</g>
</svg>
