<?xml version="1.0" encoding="UTF-8"?>
<svg version="1.1" xmlns="http://www.w3.org/2000/svg" width="200" height="200">
<path d="M0 0 C1.77289269 1.03815781 3.54389873 2.0795481 5.3125 3.125 C7.80194116 4.50510186 7.80194116 4.50510186 10.3125 5.125 C12.29057013 4.28729418 12.29057013 4.28729418 14.3125 3.125 C21.4429963 2.22897203 27.78080276 2.21346853 33.6640625 6.64453125 C37.57229699 10.15453332 40.2576921 13.04736633 41.25 18.375 C41.600625 19.6125 41.95125 20.85 42.3125 22.125 C45.07800792 23.49182634 45.07800792 23.49182634 48.3125 24.125 C50.3305755 25.43081356 52.33303408 26.76136792 54.3125 28.125 C57.8430117 29.30183723 58.46554326 28.86107575 61.8125 27.5625 C67.72619287 25.70908314 72.50630982 25.94659382 78.3125 28.125 C84.61785472 31.87441528 88.32766742 37.10174624 90.3125 44.125 C90.5625 47.6875 90.5625 47.6875 90.3125 50.125 C90.869375 50.12757812 91.42625 50.13015625 92 50.1328125 C98.50584703 50.46250069 102.74249321 52.45159939 107.3125 57.125 C111.44279902 62.71751982 111.06382506 68.43060931 110.3125 75.125 C108.0269807 80.04765695 104.59555294 82.93549249 100.3125 86.125 C97.3929957 87.0981681 95.25805049 87.3179546 92.20703125 87.44140625 C91.22412109 87.48330078 90.24121094 87.52519531 89.22851562 87.56835938 C88.20435547 87.60767578 87.18019531 87.64699219 86.125 87.6875 C85.08923828 87.73068359 84.05347656 87.77386719 82.98632812 87.81835938 C80.4285181 87.92444366 77.87061155 88.02650146 75.3125 88.125 C75.34730469 89.17300781 75.38210937 90.22101563 75.41796875 91.30078125 C75.44610937 92.67967147 75.47340924 94.05857902 75.5 95.4375 C75.52513672 96.12779297 75.55027344 96.81808594 75.57617188 97.52929688 C75.65161251 102.7347007 75.65161251 102.7347007 73.86328125 104.79296875 C73.35152344 105.23253906 72.83976563 105.67210938 72.3125 106.125 C72.17328125 106.91390625 72.0340625 107.7028125 71.890625 108.515625 C71.12490837 111.97169737 69.56379288 113.40683683 67.0625 115.875 C65.91007812 117.04289062 65.91007812 117.04289062 64.734375 118.234375 C62.12629415 120.2703607 60.52115281 120.6297046 57.3125 121.125 C56.6525 121.785 55.9925 122.445 55.3125 123.125 C53.9925 123.125 52.6725 123.125 51.3125 123.125 C51.3125 134.345 51.3125 145.565 51.3125 157.125 C52.9625 157.785 54.6125 158.445 56.3125 159.125 C57.49024477 162.65823432 57.06552897 164.0729515 56.125 167.625 C55.76341797 169.06359375 55.76341797 169.06359375 55.39453125 170.53125 C54.12256571 173.58029374 53.10184408 174.41898769 50.3125 176.125 C48.06951237 176.51090336 48.06951237 176.51090336 45.57521057 176.52613831 C44.62613831 176.53893326 43.67706604 176.55172821 42.69923401 176.56491089 C41.66483688 176.56355133 40.63043976 176.56219177 39.56469727 176.56079102 C38.46999115 176.57086685 37.37528503 176.58094269 36.24740601 176.59132385 C32.62446923 176.61984829 29.00194836 176.62568257 25.37890625 176.62890625 C22.86311164 176.63854348 20.34731874 176.64863565 17.83152771 176.65916443 C12.55652158 176.67713651 7.28162119 176.68281264 2.0065918 176.6809082 C-4.08649222 176.67910548 -10.17877974 176.71077119 -16.27166218 176.75813919 C-22.13859739 176.80212153 -28.0052176 176.81287176 -33.8723011 176.81107903 C-36.36622435 176.81462302 -38.86015328 176.82791427 -41.35397148 176.85107613 C-44.8400907 176.88042514 -48.32415138 176.87186694 -51.81030273 176.85375977 C-53.35886208 176.87904755 -53.35886208 176.87904755 -54.93870544 176.90484619 C-61.74084906 176.81492577 -61.74084906 176.81492577 -64.44281197 174.84571648 C-67.3662324 171.50097985 -68.33980648 168.62862278 -68.5 164.25 C-68.54769531 163.28320312 -68.59539062 162.31640625 -68.64453125 161.3203125 C-68.65871094 160.59585938 -68.67289063 159.87140625 -68.6875 159.125 C-65.6875 157.125 -65.6875 157.125 -62.6875 157.125 C-62.70082367 156.38441849 -62.71414734 155.64383698 -62.72787476 154.8808136 C-62.84823002 147.89240588 -62.93951422 140.90415356 -62.99837303 133.91497517 C-63.02965173 130.32185372 -63.0720562 126.72959042 -63.14013672 123.13696289 C-63.20546051 119.6679921 -63.24123209 116.19984512 -63.25676346 112.73030663 C-63.27320209 110.76640495 -63.32002186 108.80283361 -63.36727905 106.83943176 C-63.36773224 105.6385643 -63.36818542 104.43769684 -63.36865234 103.20043945 C-63.38197601 102.14564896 -63.39529968 101.09085846 -63.4090271 100.00410461 C-62.57402981 96.67222068 -61.23687265 95.09694296 -58.47629356 93.0626955 C-55.39648418 91.44824235 -52.3210566 91.47029937 -48.93798828 91.55737305 C-47.81013664 91.55627785 -47.81013664 91.55627785 -46.65950012 91.55516052 C-44.19151896 91.5586246 -41.72546099 91.59742569 -39.2578125 91.63671875 C-37.54003938 91.64605117 -35.82225289 91.65316526 -34.10446167 91.65815735 C-29.59634269 91.67719357 -25.08903683 91.72626454 -20.58123779 91.78167725 C-15.97614541 91.83294307 -11.37092086 91.85568699 -6.765625 91.88085938 C2.26077275 91.93438713 11.2865686 92.01965845 20.3125 92.125 C20.3125 90.805 20.3125 89.485 20.3125 88.125 C19.4654248 88.1156543 18.61834961 88.10630859 17.74560547 88.09667969 C14.58055648 88.05247388 11.41645188 87.99077473 8.25195312 87.91748047 C6.88651836 87.88938377 5.52092436 87.86811323 4.15527344 87.85400391 C2.18395962 87.83242018 0.21300369 87.7836454 -1.7578125 87.734375 C-2.94133301 87.71342773 -4.12485352 87.69248047 -5.34423828 87.67089844 C-10.88442569 86.76627897 -15.14867586 83.39599465 -18.6875 79.125 C-21.0668185 74.94068126 -21.89508898 72.08744609 -21.26171875 67.38671875 C-21.15819092 66.58580811 -21.05466309 65.78489746 -20.94799805 64.9597168 C-20.86203369 64.35426025 -20.77606934 63.74880371 -20.6875 63.125 C-21.71633301 63.14071045 -22.74516602 63.1564209 -23.80517578 63.17260742 C-27.64054463 63.22711334 -31.47587957 63.26142477 -35.31152344 63.28979492 C-36.96815763 63.30483465 -38.62475231 63.32527177 -40.28125 63.35131836 C-42.6693703 63.38791515 -45.05696188 63.40477439 -47.4453125 63.41796875 C-48.54723434 63.44119453 -48.54723434 63.44119453 -49.67141724 63.46488953 C-55.30316038 63.46671183 -59.41521902 62.26389761 -63.55078125 58.37109375 C-64.02902344 57.77425781 -64.50726563 57.17742187 -65 56.5625 C-65.49113281 55.96308594 -65.98226562 55.36367187 -66.48828125 54.74609375 C-69.88457923 50.1550069 -69.19703985 44.60075926 -68.6875 39.125 C-65.85257894 33.12805161 -61.29872739 29.0704444 -55.0625 26.8125 C-51.6875 26.125 -51.6875 26.125 -47.6875 26.125 C-47.605 25.135 -47.5225 24.145 -47.4375 23.125 C-46.23064187 14.92497761 -41.29163975 7.60572965 -34.734375 2.6484375 C-24.26056572 -4.18752199 -11.28134837 -5.73154006 0 0 Z M-29.6875 8.125 C-30.739375 8.82625 -31.79125 9.5275 -32.875 10.25 C-39.01699388 15.70395632 -40.98630159 23.27157779 -41.6875 31.125 C-44.25081361 33.68831361 -45.44361956 33.40369005 -49 33.5625 C-53.30049112 33.88897707 -56.3268267 34.19796196 -59.6875 37.125 C-61.99819059 40.0958879 -62.15837809 43.37661104 -62.08203125 47.08984375 C-61.37397817 50.74227597 -59.31215368 52.56283808 -56.6875 55.125 C-53.40933878 56.76408061 -49.776681 56.33096251 -46.171875 56.36328125 C-45.32328918 56.371353 -44.47470337 56.37942474 -43.60040283 56.38774109 C-41.80149378 56.40158441 -40.00255843 56.41230546 -38.20361328 56.42016602 C-35.46205272 56.43734614 -32.72170844 56.48122484 -29.98046875 56.52539062 C-28.23177969 56.53552061 -26.48308039 56.54403575 -24.734375 56.55078125 C-23.51062164 56.57704338 -23.51062164 56.57704338 -22.262146 56.60383606 C-16.87001437 56.58345225 -14.06400413 55.5235304 -9.6875 52.125 C-6.9140625 51.296875 -6.9140625 51.296875 -4.3125 50.875 C-3.43851563 50.72546875 -2.56453125 50.5759375 -1.6640625 50.421875 C-1.01179688 50.32390625 -0.35953125 50.2259375 0.3125 50.125 C0.51552734 49.09052734 0.51552734 49.09052734 0.72265625 48.03515625 C2.88243479 38.60714095 6.90150439 32.2541563 14.875 26.6875 C21.52595665 22.63422339 27.65460298 21.70009899 35.3125 21.125 C33.47069067 17.07301946 31.7343175 14.01215851 28.3125 11.125 C24.2578322 9.77344407 20.55256188 9.56595074 16.3125 10.125 C13.03939447 12.02856987 13.03939447 12.02856987 10.3125 14.125 C8.9925 14.125 7.6725 14.125 6.3125 14.125 C5.16776158 12.94659281 4.02547742 11.76565787 2.8984375 10.5703125 C-3.36301655 4.86406127 -10.35440942 3.35275704 -18.63671875 3.703125 C-22.98788153 4.30482229 -26.10433418 5.63486412 -29.6875 8.125 Z M11.74609375 37.28125 C7.4507826 42.80546488 6.46187306 49.40454813 5.3125 56.125 C4.43207031 56.22296875 3.55164063 56.3209375 2.64453125 56.421875 C1.48308594 56.57140625 0.32164063 56.7209375 -0.875 56.875 C-2.02355469 57.01421875 -3.17210938 57.1534375 -4.35546875 57.296875 C-8.08283475 58.22325436 -9.93328648 59.49031835 -12.6875 62.125 C-14.52298272 65.21194821 -14.68957001 67.00907944 -14.625 70.625 C-13.51026962 74.78666007 -11.96776327 76.40478168 -8.6875 79.125 C-4.2160176 81.3607412 1.73181935 80.55866776 6.69580078 80.63989258 C8.17996151 80.671412 9.663875 80.71904314 11.14697266 80.78344727 C19.97073049 81.3884231 19.97073049 81.3884231 27.94433594 78.30419922 C30.0408337 76.16332769 30.0408337 76.16332769 31.64990234 73.85522461 C33.3125 72.125 33.3125 72.125 35.89306641 72.06469727 C37.09068604 72.09454712 37.09068604 72.09454712 38.3125 72.125 C38.9725 71.135 39.6325 70.145 40.3125 69.125 C42.89060299 68.82028794 45.17649418 68.70642229 47.75 68.75 C48.43126953 68.73839844 49.11253906 68.72679687 49.81445312 68.71484375 C54.85010515 68.74443622 54.85010515 68.74443622 57.14453125 70.6328125 C57.52996094 71.12523437 57.91539062 71.61765625 58.3125 72.125 C59.055 72.2075 59.7975 72.29 60.5625 72.375 C63.80615081 73.25963204 64.14966241 74.06077468 66.171875 76.62109375 C69.44694117 79.98099288 71.77908138 80.69804268 76.4375 81.01953125 C78.72931116 81.02877242 81.0215342 81.00042451 83.3125 80.9375 C85.03726563 80.96553711 85.03726563 80.96553711 86.796875 80.99414062 C92.14683656 80.9355869 96.2810286 80.78937287 100.58203125 77.390625 C102.53372495 75.36386616 103.27407979 74.24608739 104.13671875 71.52734375 C103.91190572 67.47428592 103.64823019 64.74480959 101.6875 61.125 C96.3797459 56.65531234 89.96956944 56.62493802 83.3125 56.125 C83.34730469 55.48433594 83.38210937 54.84367187 83.41796875 54.18359375 C83.60214614 48.29868751 83.28777546 44.25478528 80.3125 39.125 C75.44789773 34.61634424 72.31655936 33.80709848 65.84765625 33.81640625 C62.32437257 34.24528053 60.1784109 36.12552728 57.3125 38.125 C53.01861309 37.46440201 50.28535238 34.48437579 47.25390625 31.5625 C36.11815344 23.31711361 20.36347892 27.88770312 11.74609375 37.28125 Z M44.3125 75.125 C43.6525 76.775 42.9925 78.425 42.3125 80.125 C41.24 79.8775 40.1675 79.63 39.0625 79.375 C35.36478628 78.77040394 35.36478628 78.77040394 32.8125 80.625 C30.73276631 84.09122282 31.42636695 86.2850901 32.3125 90.125 C30.6625 90.785 29.0125 91.445 27.3125 92.125 C27.3125 94.435 27.3125 96.745 27.3125 99.125 C29.7875 100.115 29.7875 100.115 32.3125 101.125 C32.085625 102.1975 31.85875 103.27 31.625 104.375 C30.95474175 108.05478576 30.95474175 108.05478576 32.75 110.5625 C33.265625 111.078125 33.78125 111.59375 34.3125 112.125 C36.9525 111.795 39.5925 111.465 42.3125 111.125 C42.9725 112.775 43.6325 114.425 44.3125 116.125 C46.6225 116.125 48.9325 116.125 51.3125 116.125 C51.9725 114.475 52.6325 112.825 53.3125 111.125 C54.385 111.3725 55.4575 111.62 56.5625 111.875 C60.26021372 112.47959606 60.26021372 112.47959606 62.8125 110.625 C64.89223369 107.15877718 64.19863305 104.9649099 63.3125 101.125 C64.9625 100.465 66.6125 99.805 68.3125 99.125 C68.3125 96.815 68.3125 94.505 68.3125 92.125 C65.8375 91.135 65.8375 91.135 63.3125 90.125 C63.580625 89.0525 63.84875 87.98 64.125 86.875 C64.73771062 83.06822232 64.73771062 83.06822232 62.25 80.625 C58.71810379 78.82147853 57.06811579 79.07692117 53.3125 80.125 C52.6525 78.475 51.9925 76.825 51.3125 75.125 C49.0025 75.125 46.6925 75.125 44.3125 75.125 Z M-55.6875 100.125 C-55.78120624 101.90491924 -55.80494271 103.68856739 -55.80102539 105.47094727 C-55.80094986 106.6120546 -55.80087433 107.75316193 -55.80079651 108.92884827 C-55.79563522 110.1704924 -55.79047394 111.41213654 -55.78515625 112.69140625 C-55.7837413 113.95516586 -55.78232635 115.21892548 -55.78086853 116.52098083 C-55.77620582 119.88624889 -55.7672148 123.2514499 -55.75616455 126.61669922 C-55.74594846 130.0484967 -55.74137049 133.48030109 -55.73632812 136.91210938 C-55.7252738 143.64975824 -55.7085171 150.38737525 -55.6875 157.125 C-54.46119873 157.13958252 -53.23489746 157.15416504 -51.97143555 157.16918945 C-47.42572734 157.22712083 -42.88051719 157.30435381 -38.33520508 157.38745117 C-36.36718829 157.42072486 -34.39907551 157.44874915 -32.4309082 157.47143555 C-29.60326188 157.50493678 -26.77649718 157.55724963 -23.94921875 157.61328125 C-23.06787766 157.61967117 -22.18653656 157.6260611 -21.27848816 157.63264465 C-20.45786392 157.65243881 -19.63723969 157.67223297 -18.79174805 157.69262695 C-17.70919991 157.70928154 -17.70919991 157.70928154 -16.6047821 157.72627258 C-14.16869255 158.23289375 -13.36837071 159.34997772 -11.6875 161.125 C-8.94506437 161.48770484 -8.94506437 161.48770484 -6 161.3125 C-4.50919922 161.27189453 -4.50919922 161.27189453 -2.98828125 161.23046875 C-1.84939453 161.17826172 -1.84939453 161.17826172 -0.6875 161.125 C-0.3575 160.135 -0.0275 159.145 0.3125 158.125 C14.8325 157.795 29.3525 157.465 44.3125 157.125 C44.3125 145.905 44.3125 134.685 44.3125 123.125 C42.6625 122.465 41.0125 121.805 39.3125 121.125 C38.3225 120.135 38.3225 120.135 37.3125 119.125 C36.53519531 118.99609375 35.75789063 118.8671875 34.95703125 118.734375 C31.68800954 117.98109969 30.35389803 116.73333099 28 114.375 C27.30261719 113.69953125 26.60523437 113.0240625 25.88671875 112.328125 C24.01112819 109.70322904 23.98693584 108.28131696 24.3125 105.125 C22.9925 104.795 21.6725 104.465 20.3125 104.125 C20.3125 102.475 20.3125 100.825 20.3125 99.125 C10.55099012 99.10187554 0.7894867 99.08408439 -8.97204494 99.07318783 C-13.50424094 99.06795922 -18.03641827 99.06086199 -22.56860352 99.04956055 C-26.9387283 99.03873086 -31.30883508 99.03272299 -35.67897224 99.03012276 C-37.35000963 99.02826865 -39.02104597 99.02464832 -40.69207573 99.01926994 C-43.02447551 99.01205841 -45.35679993 99.0110091 -47.68920898 99.01147461 C-48.3869191 99.00787933 -49.08462921 99.00428406 -49.80348206 99.00057983 C-53.02409381 98.73437534 -53.02409381 98.73437534 -55.6875 100.125 Z M-60.6875 165.125 C-60.3575 166.445 -60.0275 167.765 -59.6875 169.125 C-24.0475 169.125 11.5925 169.125 48.3125 169.125 C48.6425 167.805 48.9725 166.485 49.3125 165.125 C43.22527254 165.07565846 37.1381608 165.03930833 31.05078125 165.01513672 C28.97882053 165.00506288 26.90687407 164.99140334 24.83496094 164.97412109 C21.86129236 164.94993336 18.8878113 164.93853092 15.9140625 164.9296875 C14.51868759 164.91420364 14.51868759 164.91420364 13.09512329 164.89840698 C11.80401138 164.89818039 11.80401138 164.89818039 10.48681641 164.89794922 C9.34764267 164.89128738 9.34764267 164.89128738 8.18545532 164.88449097 C6.06747701 164.96249845 6.06747701 164.96249845 4.3125 167.125 C2.06591797 167.35205078 2.06591797 167.35205078 -0.6953125 167.3203125 C-1.68144531 167.31386719 -2.66757813 167.30742187 -3.68359375 167.30078125 C-5.23240234 167.27564453 -5.23240234 167.27564453 -6.8125 167.25 C-7.85277344 167.24097656 -8.89304688 167.23195312 -9.96484375 167.22265625 C-12.53929092 167.19903747 -15.11328212 167.16610149 -17.6875 167.125 C-17.6875 166.465 -17.6875 165.805 -17.6875 165.125 C-31.8775 165.125 -46.0675 165.125 -60.6875 165.125 Z " fill="#2f394e" transform="translate(78.6875,13.875)"/>
<path d="M0 0 C2.31 0 4.62 0 7 0 C7.09940554 5.40766124 7.17172051 10.81478228 7.21972656 16.22314453 C7.23975373 18.06015293 7.26698382 19.89709829 7.30175781 21.73388672 C7.35067065 24.38525002 7.37305763 27.03576541 7.390625 29.6875 C7.41127014 30.49928711 7.43191528 31.31107422 7.45318604 32.14746094 C7.45573697 38.73499713 5.74618525 43.86120892 1.36914062 48.86401367 C-5.16842672 53.12517323 -11.92943486 52.56254407 -19.5 52.3125 C-20.799375 52.28994141 -22.09875 52.26738281 -23.4375 52.24414062 C-26.62620497 52.18552472 -29.81248932 52.10351129 -33 52 C-33 49.69 -33 47.38 -33 45 C-32.23856689 44.98541748 -31.47713379 44.97083496 -30.69262695 44.95581055 C-27.23208112 44.88119459 -23.77248555 44.78457741 -20.3125 44.6875 C-18.51522461 44.65366211 -18.51522461 44.65366211 -16.68164062 44.61914062 C-15.52470703 44.58369141 -14.36777344 44.54824219 -13.17578125 44.51171875 C-12.11270752 44.48553467 -11.04963379 44.45935059 -9.9543457 44.43237305 C-6.60637116 43.94239181 -4.68392266 43.04146714 -2 41 C-0.71225554 37.13676662 -0.76617207 33.42509463 -0.68359375 29.39453125 C-0.66281265 28.55532639 -0.64203156 27.71612152 -0.62062073 26.85148621 C-0.55525982 24.17190706 -0.49630286 21.49223031 -0.4375 18.8125 C-0.39430198 16.99543263 -0.35068727 15.17837512 -0.30664062 13.36132812 C-0.1995922 8.90765201 -0.09828681 4.45387774 0 0 Z " fill="#2f394e" transform="translate(168,106)"/>
<path d="M0 0 C4.87070677 2.43535338 7.15569877 4.87694102 9 10 C9.57655769 13.95353844 9.19506815 15.63153793 7.3125 19.1875 C3.99752342 23.21922828 1.77118784 24.77457609 -3.4375 25.4375 C-8.65512075 24.79673956 -11.59245374 22.73597372 -14.875 18.6875 C-16.35117243 15.16108808 -16.46618895 12.79611 -16 9 C-12.32317126 1.9187002 -8.0382172 -0.98714948 0 0 Z M-7.1875 8.1875 C-9.21667976 9.8815484 -9.21667976 9.8815484 -9.5 12.5 C-9.20180308 15.09642209 -9.20180308 15.09642209 -7.3125 16.875 C-5.03425874 18.21199479 -5.03425874 18.21199479 -2.375 17.875 C0.32987773 17.1432514 0.32987773 17.1432514 2 14 C1.91666667 11.41666667 1.91666667 11.41666667 1 9 C-2.37022521 6.75318319 -3.60026952 6.24014631 -7.1875 8.1875 Z " fill="#2f394e" transform="translate(130,97)"/>
<path d="M0 0 C2.31 0 4.62 0 7 0 C7 2.31 7 4.62 7 7 C4.69 7 2.38 7 0 7 C0 4.69 0 2.38 0 0 Z " fill="#2f394e" transform="translate(81,139)"/>
<path d="M0 0 C2.31 0 4.62 0 7 0 C7 2.31 7 4.62 7 7 C4.69 7 2.38 7 0 7 C0 4.69 0 2.38 0 0 Z " fill="#2f394e" transform="translate(69,139)"/>
<path d="M0 0 C2.31 0 4.62 0 7 0 C7 2.31 7 4.62 7 7 C4.69 7 2.38 7 0 7 C0 4.69 0 2.38 0 0 Z " fill="#2f394e" transform="translate(57,139)"/>
</svg>
