<?xml version="1.0" encoding="UTF-8"?>
<svg version="1.1" xmlns="http://www.w3.org/2000/svg" width="200" height="200">
<path d="M0 0 C0.65871094 0.36996094 1.31742187 0.73992188 1.99609375 1.12109375 C3.54296875 1.95640625 3.54296875 1.95640625 5.12109375 2.80859375 C13.14201713 9.26020603 18.91916395 16.91915292 20.99609375 27.12109375 C21.06352723 29.20343967 21.08123847 31.28777932 21.05859375 33.37109375 C21.04957031 34.44875 21.04054687 35.52640625 21.03125 36.63671875 C21.01384766 37.86648437 21.01384766 37.86648437 20.99609375 39.12109375 C21.58189713 39.1122113 22.1677005 39.10332886 22.77125549 39.09417725 C28.88719899 39.00544753 35.00295859 38.94525343 41.11938477 38.90136719 C43.3997338 38.88129455 45.68003164 38.85403032 47.96020508 38.81933594 C51.24443217 38.77062766 54.52797667 38.74808089 57.8125 38.73046875 C58.82631241 38.70982361 59.84012482 38.68917847 60.88465881 38.66790771 C67.14118078 38.66593967 70.97284198 39.27517303 75.99609375 43.12109375 C79.34191458 47.3787268 79.43000868 51.36507289 79.40014648 56.57983398 C79.40700974 57.419487 79.41387299 58.25914001 79.42094421 59.12423706 C79.43920802 61.89289378 79.43537531 64.66098361 79.4296875 67.4296875 C79.43424955 69.35873092 79.4395552 71.28777271 79.4455719 73.21681213 C79.45450222 77.25764574 79.45208081 81.29828171 79.44213867 85.33911133 C79.43065 90.51206237 79.45085937 95.68433068 79.48005581 100.85719204 C79.49842055 104.84040139 79.49812478 108.82344723 79.49241829 112.80668831 C79.4922651 114.71363342 79.49830717 116.62058964 79.51070976 118.52749443 C79.52562291 121.1964156 79.51494065 123.86407668 79.49780273 126.53295898 C79.51230469 127.70909004 79.51230469 127.70909004 79.52709961 128.90898132 C79.45761047 134.088822 78.37040001 136.98538776 74.99609375 141.12109375 C70.67693712 144.82322801 66.39726582 144.43880975 60.99609375 144.12109375 C61.03089844 144.91773438 61.06570312 145.714375 61.1015625 146.53515625 C61.3825298 157.5330191 61.3825298 157.5330191 57.99609375 162.12109375 C53.83478293 166.28240457 50.73967766 169.02866699 44.6262207 169.23461914 C43.24559534 169.23446125 41.86496351 169.22883792 40.484375 169.21875 C39.75615036 169.21733505 39.02792572 169.2159201 38.27763367 169.21446228 C35.95457836 169.20887034 33.63161987 169.19631937 31.30859375 169.18359375 C29.73242327 169.17857771 28.15625127 169.17401498 26.58007812 169.16992188 C22.71871277 169.15890355 18.85741967 169.14164449 14.99609375 169.12109375 C14.99609375 172.75109375 14.99609375 176.38109375 14.99609375 180.12109375 C18.95609375 180.12109375 22.91609375 180.12109375 26.99609375 180.12109375 C26.99609375 182.43109375 26.99609375 184.74109375 26.99609375 187.12109375 C-1.38390625 187.12109375 -29.76390625 187.12109375 -59.00390625 187.12109375 C-59.00390625 184.81109375 -59.00390625 182.50109375 -59.00390625 180.12109375 C-55.04390625 180.12109375 -51.08390625 180.12109375 -47.00390625 180.12109375 C-47.00390625 176.49109375 -47.00390625 172.86109375 -47.00390625 169.12109375 C-47.96167969 169.14204102 -48.91945312 169.16298828 -49.90625 169.18457031 C-53.49187001 169.25748854 -57.07742578 169.30307933 -60.66357422 169.34082031 C-62.20958512 169.36081878 -63.75552152 169.38802706 -65.30126953 169.42285156 C-81.29996722 169.7740173 -81.29996722 169.7740173 -88.00390625 165.12109375 C-92.64776805 160.2390852 -93.12848645 156.64324255 -93.1015625 150.046875 C-93.10014755 149.36304245 -93.0987326 148.6792099 -93.09727478 147.97465515 C-93.09168501 145.79425653 -93.07913447 143.61396124 -93.06640625 141.43359375 C-93.06138992 139.95377753 -93.05682725 138.47395969 -93.05273438 136.99414062 C-93.04171896 133.36975818 -93.02446137 129.74543605 -93.00390625 126.12109375 C-93.61443848 126.14139648 -94.2249707 126.16169922 -94.85400391 126.18261719 C-95.6588623 126.1984082 -96.4637207 126.21419922 -97.29296875 126.23046875 C-98.08912598 126.25077148 -98.8852832 126.27107422 -99.70556641 126.29199219 C-104.03147007 125.9703295 -106.65125205 123.43617107 -109.64073181 120.52973938 C-111.67560319 116.93424645 -111.44625133 113.35754385 -111.43969727 109.33276367 C-111.4497731 108.44609512 -111.45984894 107.55942657 -111.4702301 106.64588928 C-111.49872915 103.71431877 -111.50458791 100.78326293 -111.5078125 97.8515625 C-111.51745324 95.81138396 -111.52754569 93.7712075 -111.53807068 91.73103333 C-111.55603763 87.45304559 -111.56159122 83.1752396 -111.55981445 78.8972168 C-111.5595098 73.42256119 -111.6004434 67.94907481 -111.65213108 62.47469616 C-111.68553548 58.2598183 -111.69157075 54.04522166 -111.68998528 49.83022499 C-111.69351986 47.81243171 -111.70675863 45.79463073 -111.72998238 43.776968 C-111.75947473 40.94968944 -111.75071876 38.12492903 -111.73266602 35.29760742 C-111.74952454 34.46879059 -111.76638306 33.63997375 -111.78375244 32.78604126 C-111.69429678 27.25564823 -110.29270235 24.43754916 -106.48609829 20.42738819 C-103.6180446 17.89969779 -101.50099895 18.00297786 -97.77734375 18.0234375 C-96.74609375 18.02666016 -95.71484375 18.02988281 -94.65234375 18.03320312 C-93.03199219 18.04577148 -93.03199219 18.04577148 -91.37890625 18.05859375 C-89.74695313 18.06536133 -89.74695313 18.06536133 -88.08203125 18.07226562 C-85.38929963 18.08407585 -82.69659616 18.1020117 -80.00390625 18.12109375 C-80.00390625 25.05109375 -80.00390625 31.98109375 -80.00390625 39.12109375 C-71.09390625 39.12109375 -62.18390625 39.12109375 -53.00390625 39.12109375 C-53.00390625 34.83109375 -53.00390625 30.54109375 -53.00390625 26.12109375 C-49.80490546 16.18134128 -44.65548861 7.05341219 -35.43359375 1.6015625 C-24.50608906 -3.92590707 -11.3527144 -5.53277312 0 0 Z M-40.00390625 15.12109375 C-45.97980155 22.66959308 -46.92692563 30.75903999 -46.00390625 40.12109375 C-44.35933369 47.59341335 -40.40735818 52.16762887 -35.19921875 57.58203125 C-31.93360611 61.35898538 -29.93942525 65.54976746 -28.00390625 70.12109375 C-26.35390625 70.12109375 -24.70390625 70.12109375 -23.00390625 70.12109375 C-23.14423117 66.93332664 -23.29217269 63.74595525 -23.44140625 60.55859375 C-23.48072266 59.66333984 -23.52003906 58.76808594 -23.56054688 57.84570312 C-23.79723408 52.87527185 -24.20212297 48.03285856 -25.00390625 43.12109375 C-26.24140625 43.05921875 -27.47890625 42.99734375 -28.75390625 42.93359375 C-32.01402804 42.51162763 -32.8928718 42.21547304 -35.50390625 39.99609375 C-37.4219244 36.31989229 -37.66203122 34.21609359 -37.00390625 30.12109375 C-34.94140625 27.18359375 -34.94140625 27.18359375 -32.00390625 25.12109375 C-27.89723714 24.46109336 -25.83098825 24.66160375 -22.19140625 26.68359375 C-19.51253353 29.66862335 -18.82588202 32.23539009 -18.00390625 36.12109375 C-16.68390625 36.12109375 -15.36390625 36.12109375 -14.00390625 36.12109375 C-13.57078125 34.48140625 -13.57078125 34.48140625 -13.12890625 32.80859375 C-12.00390625 29.12109375 -12.00390625 29.12109375 -10.00390625 26.12109375 C-5.67933737 24.70222734 -2.07543749 24.58532813 1.99609375 26.62109375 C4.60575554 29.88317099 4.99609375 31.96225249 4.99609375 36.12109375 C4.12109375 38.93359375 4.12109375 38.93359375 1.99609375 41.12109375 C-0.34429802 41.89140255 -2.61153541 42.36828293 -5.04296875 42.76171875 C-7.00079969 42.92863496 -7.00079969 42.92863496 -8.00390625 44.12109375 C-9.00180059 52.75719169 -9.14704128 61.43756837 -9.00390625 70.12109375 C-7.35390625 70.12109375 -5.70390625 70.12109375 -4.00390625 70.12109375 C-3.69453125 69.00734375 -3.38515625 67.89359375 -3.06640625 66.74609375 C-1.20130547 61.67983443 2.18753975 58.38151472 5.83984375 54.50390625 C11.49641053 48.25299006 14.49839607 40.82514008 14.25 32.296875 C13.15660484 22.92731955 9.33345853 15.42531024 1.95703125 9.51171875 C-12.34516854 -0.63087712 -28.40566458 3.07575433 -40.00390625 15.12109375 Z M-101.00390625 25.12109375 C-104.2782188 27.77721894 -104.2782188 27.77721894 -104.3646698 31.139328 C-104.35800797 32.37620865 -104.35134613 33.61308929 -104.34448242 34.88745117 C-104.3449205 35.57063919 -104.34535858 36.25382721 -104.34580994 36.9577179 C-104.34372107 39.21429087 -104.32038662 41.47011944 -104.296875 43.7265625 C-104.29127936 45.29168797 -104.28700911 46.85681869 -104.28401184 48.42195129 C-104.27256044 52.54025799 -104.24309095 56.658247 -104.2098999 60.77642822 C-104.17920526 64.97916364 -104.16550781 69.18195041 -104.15039062 73.38476562 C-104.11822126 81.63037033 -104.06545114 89.87565591 -104.00390625 98.12109375 C-95.58890625 97.62609375 -95.58890625 97.62609375 -87.00390625 97.12109375 C-87.00390625 73.36109375 -87.00390625 49.60109375 -87.00390625 25.12109375 C-91.62390625 25.12109375 -96.24390625 25.12109375 -101.00390625 25.12109375 Z M-29.00390625 31.12109375 C-29.99390625 31.61609375 -29.99390625 31.61609375 -31.00390625 32.12109375 C-30.67390625 33.44109375 -30.34390625 34.76109375 -30.00390625 36.12109375 C-28.35390625 36.12109375 -26.70390625 36.12109375 -25.00390625 36.12109375 C-25.27066829 34.13617733 -25.27066829 34.13617733 -26.00390625 32.12109375 C-26.99390625 31.79109375 -27.98390625 31.46109375 -29.00390625 31.12109375 Z M-5.00390625 31.12109375 C-5.99390625 31.61609375 -5.99390625 31.61609375 -7.00390625 32.12109375 C-7.00390625 33.44109375 -7.00390625 34.76109375 -7.00390625 36.12109375 C-5.35390625 36.12109375 -3.70390625 36.12109375 -2.00390625 36.12109375 C-2.00390625 34.80109375 -2.00390625 33.48109375 -2.00390625 32.12109375 C-2.99390625 31.79109375 -3.98390625 31.46109375 -5.00390625 31.12109375 Z M-18.00390625 43.12109375 C-17.67390625 49.72109375 -17.34390625 56.32109375 -17.00390625 63.12109375 C-16.67390625 63.12109375 -16.34390625 63.12109375 -16.00390625 63.12109375 C-15.12369256 56.40946437 -14.8900867 49.88703394 -15.00390625 43.12109375 C-15.99390625 43.12109375 -16.98390625 43.12109375 -18.00390625 43.12109375 Z M-80.00390625 47.12109375 C-80.00390625 66.26109375 -80.00390625 85.40109375 -80.00390625 105.12109375 C-87.26390625 105.12109375 -94.52390625 105.12109375 -102.00390625 105.12109375 C-104.40737004 107.52455754 -104.32474372 108.2600957 -104.37890625 111.55859375 C-104.40726563 112.34105469 -104.435625 113.12351562 -104.46484375 113.9296875 C-104.18777084 116.22426931 -104.18777084 116.22426931 -102.41656494 117.73677063 C-99.13369569 119.62039877 -96.71678332 119.48147597 -92.94042969 119.46166992 C-91.88616791 119.46232704 -91.88616791 119.46232704 -90.81060791 119.46299744 C-88.49454677 119.46091249 -86.17921545 119.43759634 -83.86328125 119.4140625 C-82.25474442 119.40846548 -80.64620247 119.40419588 -79.03765869 119.40119934 C-74.80922259 119.38975888 -70.58109688 119.36029875 -66.3527832 119.3270874 C-62.03601276 119.29636919 -57.71919204 119.28269027 -53.40234375 119.26757812 C-44.93605567 119.23542813 -36.4700196 119.18424164 -28.00390625 119.12109375 C-28.42932709 118.28883774 -28.85474792 117.45658173 -29.2930603 116.59910583 C-32.58918725 109.87395477 -34.89251697 104.47450157 -34.66796875 96.96875 C-34.67218842 96.1801207 -34.67640808 95.39149139 -34.68075562 94.57896423 C-34.69143362 92.11281893 -34.66388679 89.64947914 -34.62890625 87.18359375 C-34.60473856 84.69311303 -34.58971059 82.20383388 -34.59848022 79.71324158 C-34.60300732 78.17830933 -34.58875741 76.64316027 -34.55215454 75.10865784 C-34.55634265 66.81088525 -39.6378405 62.25346426 -45.00390625 56.5625 C-47.00390625 54.12109375 -47.00390625 54.12109375 -51.00390625 47.12109375 C-60.57390625 47.12109375 -70.14390625 47.12109375 -80.00390625 47.12109375 Z M17.99609375 47.12109375 C17.20334227 48.53715365 16.41194063 49.95396928 15.62109375 51.37109375 C15.18023437 52.16 14.739375 52.94890625 14.28515625 53.76171875 C13.46039691 55.27127828 12.67695255 56.80462752 11.94921875 58.36328125 C10.99609375 60.12109375 10.99609375 60.12109375 9.12109375 60.99609375 C5.85660309 62.72435351 4.75706738 64.89930729 2.99609375 68.12109375 C2.48412054 70.97199083 2.53127326 73.74363256 2.59765625 76.6328125 C2.59291732 78.29492328 2.58769342 79.95703273 2.58203125 81.61914062 C2.59669861 84.208175 2.62093097 86.79666238 2.65625 89.38549805 C2.77347854 100.33485298 2.27928448 107.76049462 -4.00390625 117.12109375 C-4.00390625 117.78109375 -4.00390625 118.44109375 -4.00390625 119.12109375 C21.07609375 119.45109375 46.15609375 119.78109375 71.99609375 120.12109375 C72.05796875 108.63296875 72.11984375 97.14484375 72.18359375 85.30859375 C72.21090576 81.68141357 72.23821777 78.0542334 72.26635742 74.31713867 C72.27639082 71.065289 72.27639082 71.065289 72.28242493 67.81343079 C72.28703122 66.36520117 72.29758162 64.91698306 72.31282043 63.46882629 C72.33475318 61.27483131 72.33781279 59.08153922 72.33666992 56.88745117 C72.34333176 55.65057053 72.34999359 54.41368988 72.3568573 53.139328 C72.22309366 50.17601624 72.22309366 50.17601624 70.78869629 48.21948242 C68.39579021 46.75326731 66.7755769 46.75976425 63.97387695 46.78051758 C62.44262932 46.78085747 62.44262932 46.78085747 60.88044739 46.78120422 C59.23032906 46.80443001 59.23032906 46.80443001 57.546875 46.828125 C56.41912155 46.83236984 55.2913681 46.83661469 54.12944031 46.84098816 C50.52225008 46.85780064 46.91561553 46.89545847 43.30859375 46.93359375 C40.86524243 46.94863722 38.42188238 46.96232621 35.97851562 46.97460938 C29.98418493 47.00771259 23.99017904 47.05793782 17.99609375 47.12109375 Z M-28.00390625 77.12109375 C-28.00390625 84.71109375 -28.00390625 92.30109375 -28.00390625 100.12109375 C-20.08390625 100.12109375 -12.16390625 100.12109375 -4.00390625 100.12109375 C-4.00390625 92.53109375 -4.00390625 84.94109375 -4.00390625 77.12109375 C-11.92390625 77.12109375 -19.84390625 77.12109375 -28.00390625 77.12109375 Z M-25.00390625 108.12109375 C-23.5149334 112.5880123 -22.1345886 115.97509477 -19.87890625 119.99609375 C-19.34007813 120.96289062 -18.80125 121.9296875 -18.24609375 122.92578125 C-17.83617188 123.65023437 -17.42625 124.3746875 -17.00390625 125.12109375 C-16.34390625 125.12109375 -15.68390625 125.12109375 -15.00390625 125.12109375 C-12.36390625 119.51109375 -9.72390625 113.90109375 -7.00390625 108.12109375 C-12.94390625 108.12109375 -18.88390625 108.12109375 -25.00390625 108.12109375 Z M-86.00390625 126.12109375 C-86.07834515 130.15949945 -86.13264354 134.19763668 -86.16870117 138.23657227 C-86.18374057 139.60903892 -86.20417758 140.98145789 -86.23022461 142.35375977 C-86.26681846 144.33198031 -86.28207323 146.31055889 -86.296875 148.2890625 C-86.31258545 149.47781982 -86.3282959 150.66657715 -86.34448242 151.89135742 C-85.97059371 155.43700171 -85.13268208 157.2916754 -83.00390625 160.12109375 C-80.46744175 161.389326 -78.69543391 161.25550924 -75.85501099 161.26826477 C-74.21879791 161.27899773 -74.21879791 161.27899773 -72.54953003 161.28994751 C-71.34740875 161.29263641 -70.14528748 161.29532532 -68.90673828 161.2980957 C-67.64490723 161.3046669 -66.38307617 161.3112381 -65.08300781 161.31800842 C-61.61603245 161.33542068 -58.14907088 161.34597047 -54.68206263 161.35421395 C-52.51678763 161.35936295 -50.35151693 161.36543868 -48.18624496 161.37172508 C-41.41380322 161.39077659 -34.64137239 161.4050086 -27.868909 161.41333705 C-20.04691143 161.42311465 -12.22519646 161.44944763 -4.4032985 161.48983794 C1.6400689 161.51997548 7.68335517 161.5348036 13.72679627 161.53811806 C17.33760301 161.540471 20.94810783 161.54946258 24.55883408 161.57457924 C28.58611669 161.60214113 32.61276588 161.59803616 36.64013672 161.59106445 C37.83820953 161.60387451 39.03628235 161.61668457 40.2706604 161.62988281 C41.36710876 161.622939 42.46355713 161.61599518 43.5932312 161.60884094 C45.02180104 161.61242347 45.02180104 161.61242347 46.47923088 161.61607838 C49.74814395 160.97319007 50.93140862 159.67929341 52.99609375 157.12109375 C54.1601356 153.42190857 54.11275594 149.80351827 54.09375 145.9453125 C54.09052734 144.78837891 54.08730469 143.63144531 54.08398438 142.43945312 C54.07560547 141.24126953 54.06722656 140.04308594 54.05859375 138.80859375 C54.05182617 136.98231445 54.05182617 136.98231445 54.04492188 135.11914062 C54.03315953 132.11974149 54.01672201 129.12044286 53.99609375 126.12109375 C52.01609375 126.12109375 50.03609375 126.12109375 47.99609375 126.12109375 C47.92261719 127.71050781 47.92261719 127.71050781 47.84765625 129.33203125 C47.77262666 130.72007872 47.6970789 132.10809826 47.62109375 133.49609375 C47.59015625 134.19476563 47.55921875 134.8934375 47.52734375 135.61328125 C47.22265625 140.89453125 47.22265625 140.89453125 44.99609375 143.12109375 C42.85305882 143.37556934 42.85305882 143.37556934 40.1441803 143.38179016 C39.11923965 143.38887497 38.09429901 143.39595978 37.03829956 143.40325928 C35.90941315 143.40078186 34.78052673 143.39830444 33.61743164 143.39575195 C31.83931847 143.40341835 31.83931847 143.40341835 30.02528381 143.41123962 C26.76905891 143.42278149 23.51299135 143.42520542 20.2567513 143.42267632 C17.54046039 143.4216083 14.8241931 143.42648567 12.10790724 143.43128175 C5.70058239 143.44238605 -0.70668385 143.44280926 -7.11401367 143.43676758 C-13.72830422 143.43072672 -20.34238211 143.44303937 -26.95663637 143.46433765 C-32.63142504 143.48194021 -38.30614593 143.48795712 -43.98096091 143.4846999 C-47.37201405 143.48288463 -50.76291553 143.48554716 -54.15394402 143.49941444 C-57.93474765 143.5116993 -61.71505441 143.50503461 -65.49584961 143.4934082 C-67.18614288 143.50487381 -67.18614288 143.50487381 -68.9105835 143.51657104 C-69.93834396 143.50955673 -70.96610443 143.50254242 -72.02500916 143.49531555 C-73.36646956 143.49556716 -73.36646956 143.49556716 -74.73503017 143.49582386 C-77.49545741 143.03990861 -78.37602707 142.36972997 -80.00390625 140.12109375 C-80.515625 136.765625 -80.515625 136.765625 -80.69140625 132.93359375 C-80.79001953 131.02513672 -80.79001953 131.02513672 -80.890625 129.078125 C-80.94669922 127.61439453 -80.94669922 127.61439453 -81.00390625 126.12109375 C-82.65390625 126.12109375 -84.30390625 126.12109375 -86.00390625 126.12109375 Z M-74.00390625 126.12109375 C-74.00390625 129.75109375 -74.00390625 133.38109375 -74.00390625 137.12109375 C-36.05390625 137.12109375 1.89609375 137.12109375 40.99609375 137.12109375 C40.99609375 133.49109375 40.99609375 129.86109375 40.99609375 126.12109375 C34.1093602 125.9974301 27.22327388 125.90672177 20.33569336 125.84643555 C17.99313091 125.8213025 15.6506468 125.78719067 13.30834961 125.74389648 C9.93974476 125.68319447 6.57217726 125.65487124 3.203125 125.6328125 C2.15711624 125.60700607 1.11110748 125.58119965 0.03340149 125.55461121 C-6.00135407 125.48483681 -6.00135407 125.48483681 -11.0168457 128.61254883 C-11.67257568 129.44036865 -12.32830566 130.26818848 -13.00390625 131.12109375 C-16.00390625 131.74609375 -16.00390625 131.74609375 -19.00390625 131.12109375 C-19.65512451 130.29327393 -20.30634277 129.4654541 -20.97729492 128.61254883 C-25.53901697 124.85741666 -29.69813242 125.49430386 -35.4296875 125.6328125 C-37.08377876 125.64342461 -37.08377876 125.64342461 -38.77128601 125.6542511 C-42.28702142 125.68219886 -45.80115368 125.7449421 -49.31640625 125.80859375 C-51.70245093 125.83367594 -54.08852062 125.85648924 -56.47460938 125.87695312 C-62.31832431 125.9320275 -68.16084365 126.01830645 -74.00390625 126.12109375 Z M60.99609375 126.12109375 C60.99609375 129.75109375 60.99609375 133.38109375 60.99609375 137.12109375 C66.04487593 137.53924935 66.04487593 137.53924935 70.49609375 135.43359375 C72.25629845 133.21250974 72.25629845 133.21250974 71.87109375 130.49609375 C71.13141462 127.9770425 71.13141462 127.9770425 68.99609375 126.12109375 C66.3076999 125.85117469 63.70467439 126.03372018 60.99609375 126.12109375 Z M-40.00390625 169.12109375 C-40.00390625 172.75109375 -40.00390625 176.38109375 -40.00390625 180.12109375 C-24.16390625 180.12109375 -8.32390625 180.12109375 7.99609375 180.12109375 C7.99609375 176.49109375 7.99609375 172.86109375 7.99609375 169.12109375 C-7.84390625 169.12109375 -23.68390625 169.12109375 -40.00390625 169.12109375 Z " fill="#2f394e" transform="translate(116.00390625,7.87890625)"/>
<path d="M0 0 C10.56 0 21.12 0 32 0 C32 8.58 32 17.16 32 26 C21.44 26 10.88 26 0 26 C0 17.42 0 8.84 0 0 Z M7 7 C7 10.63 7 14.26 7 18 C12.94 18 18.88 18 25 18 C25 14.37 25 10.74 25 7 C19.06 7 13.12 7 7 7 Z " fill="#2f394e" transform="translate(41,96)"/>
<path d="M0 0 C16.5 0 33 0 50 0 C50 2.31 50 4.62 50 7 C33.5 7 17 7 0 7 C0 4.69 0 2.38 0 0 Z " fill="#2f394e" transform="translate(133,84)"/>
<path d="M0 0 C16.5 0 33 0 50 0 C50 2.31 50 4.62 50 7 C33.5 7 17 7 0 7 C0 4.69 0 2.38 0 0 Z " fill="#2f394e" transform="translate(133,72)"/>
<path d="M0 0 C12.54 0 25.08 0 38 0 C38 2.31 38 4.62 38 7 C25.46 7 12.92 7 0 7 C0 4.69 0 2.38 0 0 Z " fill="#2f394e" transform="translate(145,96)"/>
<path d="M0 0 C10.56 0 21.12 0 32 0 C32 2.64 32 5.28 32 8 C21.44 8 10.88 8 0 8 C0 5.36 0 2.72 0 0 Z " fill="#2f394e" transform="translate(151,59)"/>
<path d="M0 0 C10.23 0 20.46 0 31 0 C31 2.64 31 5.28 31 8 C20.77 8 10.54 8 0 8 C0 5.36 0 2.72 0 0 Z " fill="#2f394e" transform="translate(133,108)"/>
<path d="M0 0 C10.56 0 21.12 0 32 0 C32 2.31 32 4.62 32 7 C21.44 7 10.88 7 0 7 C0 4.69 0 2.38 0 0 Z " fill="#2f394e" transform="translate(41,84)"/>
<path d="M0 0 C4.14581887 -0.02886751 8.29161216 -0.04675327 12.4375 -0.0625 C14.21350586 -0.07506836 14.21350586 -0.07506836 16.02539062 -0.08789062 C17.15009766 -0.09111328 18.27480469 -0.09433594 19.43359375 -0.09765625 C20.47572021 -0.10289307 21.51784668 -0.10812988 22.59155273 -0.11352539 C25 0 25 0 26 1 C26 3.31 26 5.62 26 8 C17.42 8 8.84 8 0 8 C0 5.36 0 2.72 0 0 Z " fill="#2f394e" transform="translate(41,59)"/>
<path d="M0 0 C6.6 0 13.2 0 20 0 C20 2.31 20 4.62 20 7 C13.4 7 6.8 7 0 7 C0 4.69 0 2.38 0 0 Z " fill="#2f394e" transform="translate(41,72)"/>
<path d="M0 0 C1.79244141 0.01740234 1.79244141 0.01740234 3.62109375 0.03515625 C5.41740234 0.04869141 5.41740234 0.04869141 7.25 0.0625 C8.17683594 0.07410156 9.10367188 0.08570312 10.05859375 0.09765625 C10.05859375 2.73765625 10.05859375 5.37765625 10.05859375 8.09765625 C7.91282738 8.12451563 5.7669673 8.14398713 3.62109375 8.16015625 C2.42613281 8.17175781 1.23117188 8.18335937 0 8.1953125 C-2.94140625 8.09765625 -2.94140625 8.09765625 -3.94140625 7.09765625 C-4.06640625 4.09765625 -4.06640625 4.09765625 -3.94140625 1.09765625 C-2.94140625 0.09765625 -2.94140625 0.09765625 0 0 Z " fill="#2f394e" transform="translate(172.94140625,107.90234375)"/>
<path d="M0 0 C4.29 0 8.58 0 13 0 C13 2.64 13 5.28 13 8 C8.71 8 4.42 8 0 8 C0 5.36 0 2.72 0 0 Z " fill="#2f394e" transform="translate(133,59)"/>
<path d="M0 0 C2.31 0 4.62 0 7 0 C7 2.31 7 4.62 7 7 C4.69 7 2.38 7 0 7 C0 4.69 0 2.38 0 0 Z " fill="#2f394e" transform="translate(133,96)"/>
<path d="M0 0 C2.31 0 4.62 0 7 0 C7 2.31 7 4.62 7 7 C4.69 7 2.38 7 0 7 C0 4.69 0 2.38 0 0 Z " fill="#2f394e" transform="translate(66,72)"/>
<path d="M0 0 C2.475 0.99 2.475 0.99 5 2 C4.67 3.32 4.34 4.64 4 6 C2.35 6.33 0.7 6.66 -1 7 C-1.66 5.68 -2.32 4.36 -3 3 C-2.01 2.01 -1.02 1.02 0 0 Z " fill="#2f394e" transform="translate(111,157)"/>
<path d="M0 0 C2.625 0.375 2.625 0.375 5 1 C5.042721 2.66611905 5.04063832 4.33382885 5 6 C4 7 4 7 1.4375 7.0625 C0.2309375 7.0315625 0.2309375 7.0315625 -1 7 C-1.625 4.625 -1.625 4.625 -2 2 C-1.34 1.34 -0.68 0.68 0 0 Z " fill="#2f394e" transform="translate(98,157)"/>
<path d="M0 0 C2.125 0.375 2.125 0.375 4 1 C4.38218767 2.65614657 4.71395102 4.32457024 5 6 C4 7 4 7 1.4375 7.0625 C0.2309375 7.0315625 0.2309375 7.0315625 -1 7 C-1.625 4.625 -1.625 4.625 -2 2 C-1.34 1.34 -0.68 0.68 0 0 Z " fill="#2f394e" transform="translate(86,157)"/>
</svg>
