<?xml version="1.0" standalone="no"?>
<!DOCTYPE svg PUBLIC "-//W3C//DTD SVG 20010904//EN"
 "http://www.w3.org/TR/2001/REC-SVG-20010904/DTD/svg10.dtd">
<svg version="1.0" xmlns="http://www.w3.org/2000/svg"
 width="200.000000pt" height="200.000000pt" viewBox="0 0 200.000000 200.000000"
 preserveAspectRatio="xMidYMid meet">
<metadata>
Created by potrace 1.16, written by Peter Selinger 2001-2019
</metadata>
<g transform="translate(0.000000,200.000000) scale(0.100000,-0.100000)"
fill="#2f394e" stroke="none">
<path d="M615 1982 c-50 -32 -76 -68 -82 -111 l-6 -41 -61 0 c-72 0 -86 -10
-86 -62 l0 -38 -122 0 c-152 -1 -195 -10 -230 -50 l-28 -30 0 -791 0 -791 34
-34 34 -34 755 0 c735 0 755 1 779 20 41 32 49 65 46 200 l-3 125 -30 0 -30 0
-3 -125 c-2 -113 -4 -127 -23 -142 -20 -17 -70 -18 -736 -18 -473 0 -721 3
-734 10 -19 10 -19 30 -19 785 0 755 0 775 19 785 11 5 81 10 155 10 l136 0 0
-54 c0 -40 4 -55 16 -60 20 -8 828 -8 848 0 12 5 16 20 16 60 l0 54 143 0
c177 0 175 1 179 -120 3 -72 6 -85 21 -88 37 -7 47 16 47 110 l0 90 -39 39
-39 39 -156 0 -156 0 0 45 c0 54 -16 65 -89 65 -45 0 -51 3 -51 20 0 34 -37
97 -72 122 -31 22 -42 23 -218 26 -167 2 -188 1 -215 -16z m386 -67 c26 -14
49 -49 49 -76 0 -5 -92 -9 -225 -9 l-225 0 0 24 c0 15 12 34 31 50 30 26 33
26 185 26 120 0 162 -3 185 -15z m189 -240 l0 -75 -370 0 -370 0 0 75 0 75
370 0 370 0 0 -75z"/>
<path d="M1390 1455 l-45 -44 -60 13 c-36 9 -66 11 -75 6 -9 -5 -22 -33 -29
-64 l-12 -54 -49 -7 c-26 -4 -56 -15 -64 -24 -15 -17 -15 -24 -1 -86 l16 -68
-50 -51 c-28 -29 -51 -58 -51 -66 0 -8 20 -35 45 -60 l45 -46 -16 -59 c-14
-58 -14 -61 5 -76 11 -9 40 -20 64 -23 l45 -7 11 -58 c7 -35 18 -61 27 -65 8
-3 45 1 82 9 l67 14 50 -50 c28 -27 57 -49 65 -49 8 0 35 20 60 45 l45 44 59
-15 c55 -14 60 -14 77 3 9 10 21 38 26 63 8 44 9 45 62 57 75 16 77 20 63 104
l-12 71 50 58 c27 32 50 60 50 63 0 3 -21 25 -46 50 l-47 44 13 67 c16 79 13
83 -61 100 l-54 11 -10 52 c-15 75 -20 78 -106 59 l-73 -16 -49 50 c-27 27
-54 50 -61 50 -6 0 -31 -20 -56 -45z m192 -121 c24 4 53 9 65 12 19 5 22 1 28
-40 8 -53 15 -60 73 -76 34 -9 42 -15 37 -28 -3 -9 -8 -34 -11 -57 -5 -37 -2
-43 35 -79 l40 -39 -46 -43 c-44 -42 -46 -45 -40 -86 4 -24 9 -53 13 -65 5
-19 1 -23 -33 -29 -59 -10 -70 -20 -82 -70 -10 -41 -14 -45 -34 -40 -80 22
-91 20 -131 -24 l-38 -42 -47 46 c-47 47 -48 47 -92 37 -73 -17 -76 -16 -89
39 -11 45 -15 51 -48 60 -21 5 -43 10 -49 10 -16 0 -16 6 -1 70 l12 51 -43 37
-43 37 47 47 c37 37 46 53 42 70 -4 13 -9 42 -13 64 l-6 42 41 7 c52 9 69 26
77 77 6 34 10 39 28 34 12 -4 39 -9 61 -12 38 -6 43 -3 75 33 l35 40 47 -45
c44 -43 48 -44 90 -38z"/>
<path d="M1367 1286 c-167 -60 -242 -239 -164 -393 47 -92 125 -143 229 -151
164 -12 298 114 298 279 0 186 -191 326 -363 265z m147 -67 c49 -14 122 -80
137 -126 6 -19 9 -62 7 -94 -8 -112 -87 -184 -203 -184 -76 0 -129 27 -170 84
-27 39 -30 50 -30 120 0 65 4 83 24 113 55 79 144 112 235 87z"/>
<path d="M1484 1053 l-71 -76 -34 46 c-27 37 -39 46 -59 44 -19 -1 -25 -8 -25
-25 0 -26 82 -148 105 -158 23 -9 212 190 208 219 -2 15 -11 23 -28 24 -19 1
-41 -15 -96 -74z"/>
<path d="M243 1433 c-18 -7 -19 -523 -1 -541 17 -17 509 -17 526 0 8 8 12 47
12 109 0 104 -10 127 -50 114 -18 -6 -20 -15 -20 -81 l0 -74 -205 0 -205 0 0
205 0 205 224 0 c123 0 231 3 240 6 19 7 21 35 4 52 -9 9 -80 12 -262 11 -138
0 -257 -3 -263 -6z"/>
<path d="M627 1204 c-70 -52 -128 -94 -130 -94 -1 0 -15 29 -32 65 -16 35 -36
67 -42 69 -18 7 -40 -3 -47 -21 -8 -20 86 -197 106 -201 16 -3 317 213 325
235 7 17 -15 43 -36 42 -9 0 -73 -43 -144 -95z"/>
<path d="M157 723 c-16 -16 -6 -53 16 -58 12 -3 168 -4 346 -3 289 3 325 5
334 20 8 12 7 21 -2 32 -12 14 -55 16 -351 16 -185 0 -340 -3 -343 -7z"/>
<path d="M1078 696 c-8 -7 -50 -119 -93 -249 -68 -201 -77 -237 -66 -251 21
-25 36 -20 99 39 l59 55 7 -61 c10 -87 20 -109 51 -109 14 0 28 6 30 12 2 7
36 103 75 214 38 111 70 211 70 223 0 25 -26 38 -49 24 -8 -5 -38 -74 -67
-153 l-51 -142 -9 43 c-12 56 -42 64 -87 22 -16 -15 -28 -21 -25 -13 3 8 31
87 63 174 54 151 56 160 39 173 -22 16 -29 16 -46 -1z"/>
<path d="M1760 695 c-11 -13 -2 -42 50 -173 35 -86 68 -164 74 -172 6 -8 -5
-2 -25 13 -57 43 -84 33 -91 -32 -3 -30 -11 -14 -63 115 -48 120 -64 150 -81
152 -11 2 -26 -4 -33 -12 -11 -13 1 -50 69 -217 109 -269 99 -251 129 -247 28
3 36 23 46 111 l6 57 32 -25 c84 -68 95 -75 111 -69 32 12 31 14 -116 374 -28
69 -56 128 -62 132 -17 12 -32 9 -46 -7z"/>
<path d="M162 508 c-19 -19 -14 -47 11 -53 12 -3 171 -4 352 -3 l330 3 3 24
c2 13 -2 28 -10 32 -22 14 -672 11 -686 -3z"/>
<path d="M160 295 c-6 -8 -10 -22 -8 -32 3 -17 24 -18 353 -18 329 0 350 1
353 18 9 46 0 47 -353 47 -279 0 -335 -2 -345 -15z"/>
</g>
</svg>
