<?xml version="1.0" standalone="no"?>
<!DOCTYPE svg PUBLIC "-//W3C//DTD SVG 20010904//EN"
 "http://www.w3.org/TR/2001/REC-SVG-20010904/DTD/svg10.dtd">
<svg version="1.0" xmlns="http://www.w3.org/2000/svg"
 width="200.000000pt" height="200.000000pt" viewBox="0 0 200.000000 200.000000"
 preserveAspectRatio="xMidYMid meet">
<metadata>
Created by potrace 1.16, written by Peter Selinger 2001-2019
</metadata>
<g transform="translate(0.000000,200.000000) scale(0.100000,-0.100000)"
fill="#2f394e" stroke="none">
<path d="M723 1783 c-10 -3 -13 -70 -13 -283 0 -244 2 -279 16 -284 28 -11
514 -7 535 4 18 10 19 24 19 278 0 195 -3 271 -12 280 -9 9 -82 12 -272 11
-144 0 -267 -3 -273 -6z m167 -150 c0 -43 4 -84 8 -91 6 -9 33 -12 98 -10 l89
3 3 88 3 87 59 0 60 0 0 -210 0 -210 -215 0 -215 0 0 210 0 210 55 0 55 0 0
-77z"/>
<path d="M960 1100 l0 -60 -344 0 c-189 0 -351 -3 -360 -6 -13 -5 -16 -25 -16
-115 l0 -109 35 0 35 0 0 75 0 75 325 0 325 0 0 -60 0 -60 35 0 35 0 0 60 0
60 305 0 305 0 0 -75 0 -75 40 0 40 0 0 99 c0 77 -4 103 -16 115 -13 14 -59
16 -345 16 l-329 0 0 60 0 60 -35 0 -35 0 0 -60z"/>
<path d="M931 780 c-92 -19 -176 -92 -206 -179 -21 -62 -19 -176 4 -226 10
-22 37 -62 59 -88 38 -44 42 -53 42 -104 0 -67 23 -119 61 -138 39 -21 177
-20 207 1 34 23 52 67 52 124 0 57 7 75 50 122 52 57 74 114 74 198 0 57 -5
87 -22 126 -55 121 -190 190 -321 164z m147 -89 c78 -40 122 -111 122 -196 0
-67 -16 -106 -65 -163 l-37 -42 -104 0 -104 0 -38 41 c-68 74 -86 144 -61 230
36 118 182 184 287 130z"/>
<path d="M217 666 c-55 -21 -103 -61 -134 -114 -24 -41 -28 -58 -28 -127 0
-70 4 -86 28 -128 30 -51 30 -51 -22 -115 -37 -46 -36 -63 3 -86 14 -9 21 -7
34 10 9 11 31 37 47 57 l30 37 40 -15 c52 -18 122 -19 173 -1 203 72 231 354
47 462 -57 33 -159 42 -218 20z m174 -81 c37 -20 74 -70 88 -119 31 -117 -85
-243 -204 -220 -103 19 -172 125 -145 225 30 110 158 167 261 114z"/>
<path d="M253 579 c-17 -5 -46 -23 -63 -41 l-32 -31 24 -19 c29 -23 33 -22 68
3 22 17 38 21 68 17 35 -5 41 -3 56 22 22 37 22 38 -21 49 -44 13 -57 13 -100
0z"/>
<path d="M1600 647 c-14 -7 -27 -23 -29 -37 -4 -33 -17 -40 -53 -26 -27 10
-32 8 -62 -25 -18 -19 -41 -57 -51 -84 l-19 -48 27 -21 c34 -27 34 -35 0 -62
-27 -21 -27 -23 -14 -60 8 -22 27 -58 43 -82 28 -41 31 -43 75 -40 44 3 47 2
55 -28 9 -37 27 -44 111 -44 68 0 97 12 97 42 0 32 27 47 61 34 24 -9 32 -7
55 14 59 56 83 149 44 170 -11 6 -20 17 -20 25 0 8 9 19 20 25 29 16 26 67 -8
121 -41 64 -58 75 -91 62 -36 -13 -61 0 -61 33 0 17 -8 27 -26 34 -36 14 -124
12 -154 -3z m114 -82 c8 -33 61 -65 108 -65 28 0 40 -5 49 -22 9 -17 9 -24 -5
-33 -23 -17 -23 -130 0 -143 13 -7 14 -13 5 -31 -9 -15 -21 -21 -48 -21 -45 0
-101 -34 -109 -66 -9 -36 -58 -34 -73 4 -15 35 -70 66 -110 60 -24 -3 -32 1
-42 20 -12 20 -11 25 4 33 23 13 24 115 1 140 -25 28 -3 59 43 59 45 0 99 33
107 65 5 19 13 25 35 25 23 0 30 -6 35 -25z"/>
<path d="M1608 484 c-91 -49 -71 -200 31 -233 39 -12 48 -12 89 5 90 38 109
146 38 211 -30 28 -43 33 -83 33 -27 -1 -60 -7 -75 -16z"/>
</g>
</svg>
