<?xml version="1.0" encoding="UTF-8"?>
<svg version="1.1" xmlns="http://www.w3.org/2000/svg" width="200" height="200">
<path d="M0 0 C1.5416407 -0.00845947 1.5416407 -0.00845947 3.11442566 -0.01708984 C4.24128784 -0.01304138 5.36815002 -0.00899292 6.52915955 -0.00482178 C8.3099012 -0.01007874 8.3099012 -0.01007874 10.12661743 -0.01544189 C13.38272346 -0.0227424 16.63866723 -0.02102251 19.89477086 -0.01468372 C23.299795 -0.00962421 26.70480821 -0.01431493 30.10983276 -0.01745605 C35.82710215 -0.02109535 41.54431988 -0.01629706 47.26158142 -0.0067749 C53.87643986 0.00411481 60.49117506 0.00058023 67.10603052 -0.01042771 C72.7816699 -0.01949545 78.45727212 -0.02078856 84.13291639 -0.01555037 C87.52444348 -0.0124285 90.91591259 -0.01202736 94.30743599 -0.01862335 C98.08585683 -0.02367857 101.8640379 -0.01599255 105.6424408 -0.00482178 C106.77132721 -0.00887024 107.90021362 -0.0129187 109.06330872 -0.01708984 C110.60071968 -0.00863037 110.60071968 -0.00863037 112.16918945 0 C113.06311936 0.00075405 113.95704927 0.0015081 114.87806797 0.002285 C117.02110291 0.25396729 117.02110291 0.25396729 119.02110291 2.25396729 C119.21949891 4.86320133 119.29386267 7.36629256 119.27989197 9.97662354 C119.28339661 10.77349579 119.28690125 11.57036804 119.29051208 12.39138794 C119.29933569 15.03316891 119.29347809 17.67468345 119.28672791 20.31646729 C119.28807438 22.14727836 119.29001476 23.97808908 119.29252625 25.80889893 C119.29547836 29.64902139 119.29117707 33.48905092 119.28184509 37.3291626 C119.2704505 42.25915423 119.27700951 47.18892811 119.28899002 52.11891174 C119.29620627 55.90034637 119.29392178 59.68172912 119.28873444 63.46316528 C119.28739729 65.28130112 119.28904793 67.09944163 119.29369354 68.91757202 C119.29875494 71.45561255 119.29105414 73.99329712 119.27989197 76.53131104 C119.28394043 77.28773895 119.28798889 78.04416687 119.29216003 78.82351685 C119.24963151 84.02543868 119.24963151 84.02543868 117.02110291 86.25396729 C114.87806797 86.50564957 114.87806797 86.50564957 112.16918945 86.50793457 C110.63177849 86.51639404 110.63177849 86.51639404 109.06330872 86.52502441 C107.3699791 86.51895172 107.3699791 86.51895172 105.6424408 86.51275635 C103.86432762 86.51801331 103.86432762 86.51801331 102.05029297 86.52337646 C98.79406074 86.53068545 95.53799034 86.52895116 92.28176045 86.52261829 C88.87719835 86.51756323 85.47264724 86.52224848 82.06808472 86.52539062 C76.34903516 86.52903221 70.63003721 86.52422667 64.91099548 86.51470947 C58.2967458 86.50382972 51.68261946 86.50734619 45.06837279 86.51836228 C39.39358719 86.5274359 33.71883875 86.52871992 28.04404825 86.52348495 C24.65303332 86.52036498 21.26207636 86.51995651 17.87106514 86.52655792 C14.09034435 86.5316196 10.30986248 86.52391743 6.52915955 86.51275635 C5.40229736 86.51680481 4.27543518 86.52085327 3.11442566 86.52502441 C2.08666519 86.51938477 1.05890472 86.51374512 0 86.50793457 C-0.89430694 86.50718052 -1.78861387 86.50642647 -2.71002102 86.50564957 C-4.97889709 86.25396729 -4.97889709 86.25396729 -7.97889709 84.25396729 C-8.28121905 81.6032797 -8.38838403 79.18490142 -8.36708069 76.53131104 C-8.37233765 75.73443878 -8.3775946 74.93756653 -8.38301086 74.11654663 C-8.39624682 71.47465586 -8.3874603 68.8333645 -8.37733459 66.19146729 C-8.3793543 64.36065556 -8.38226487 62.52984461 -8.3860321 60.69903564 C-8.39046033 56.85886997 -8.38400845 53.01891338 -8.37001038 49.17877197 C-8.35291816 44.2486863 -8.36275669 39.31909052 -8.38072777 34.38902283 C-8.3915522 30.60756722 -8.38812545 26.82622835 -8.38034439 23.04476929 C-8.37833867 21.22663312 -8.38081465 19.40848647 -8.38778305 17.59036255 C-8.39537563 15.05216266 -8.38382477 12.51476356 -8.36708069 9.97662354 C-8.37315338 9.22019562 -8.37922607 8.4637677 -8.38548279 7.68441772 C-8.35984802 5.59405518 -8.35984802 5.59405518 -7.97889709 2.25396729 C-4.70878141 0.07389016 -3.78533334 0.00319167 0 0 Z M1.02110291 9.25396729 C1.02110291 29.71396729 1.02110291 50.17396729 1.02110291 71.25396729 C8.51656322 63.75850698 15.40813428 55.91883649 21.97813416 47.60162354 C25.49869106 43.55601226 25.49869106 43.55601226 28.02110291 42.25396729 C32.60635907 43.16523271 34.62411144 45.78638628 37.39610291 49.37896729 C41.13835586 54.13670597 44.9946697 58.73555832 49.02110291 63.25396729 C53.50951413 59.02009734 57.20770214 54.33096225 60.95860291 49.44146729 C61.55350525 48.6725415 62.14840759 47.90361572 62.76133728 47.11138916 C63.94261929 45.58153213 65.12026212 44.04885745 66.29405212 42.51324463 C67.45607005 40.99312675 68.62449787 39.47788967 69.79893494 37.96734619 C70.34791443 37.25368896 70.89689392 36.54003174 71.46250916 35.80474854 C71.95565613 35.16835449 72.4488031 34.53196045 72.95689392 33.87628174 C74.20393616 32.29862001 74.20393616 32.29862001 74.02110291 30.25396729 C76.33110291 30.25396729 78.64110291 30.25396729 81.02110291 30.25396729 C81.29333679 30.83251465 81.56557068 31.41106201 81.84605408 32.00714111 C83.01712762 34.24636608 84.3201231 36.17312295 85.82188416 38.20318604 C86.38109558 38.96139648 86.94030701 39.71960693 87.51646423 40.50079346 C88.11612 41.30621582 88.71577576 42.11163818 89.33360291 42.94146729 C89.94937195 43.77202637 90.56514099 44.60258545 91.1995697 45.45831299 C95.54771367 51.30849266 99.9249226 57.1367774 104.33360291 62.94146729 C104.89023621 63.67776367 105.44686951 64.41406006 106.02037048 65.17266846 C107.32922563 66.88561075 108.67152896 68.57291903 110.02110291 70.25396729 C110.35110291 70.25396729 110.68110291 70.25396729 111.02110291 70.25396729 C111.02110291 50.12396729 111.02110291 29.99396729 111.02110291 9.25396729 C74.72110291 9.25396729 38.42110291 9.25396729 1.02110291 9.25396729 Z M77.02110291 41.25396729 C76.1331866 42.39515808 75.28494252 43.56742835 74.45860291 44.75396729 C73.25204041 46.48646729 73.25204041 46.48646729 72.02110291 48.25396729 C75.65110291 48.25396729 79.28110291 48.25396729 83.02110291 48.25396729 C82.21672791 47.09896729 81.41235291 45.94396729 80.58360291 44.75396729 C80.13114197 44.10427979 79.67868103 43.45459229 79.21250916 42.78521729 C78.81934509 42.27990479 78.42618103 41.77459229 78.02110291 41.25396729 C77.69110291 41.25396729 77.36110291 41.25396729 77.02110291 41.25396729 Z M25.95469666 55.27349854 C25.13098572 56.19517822 24.30727478 57.11685791 23.45860291 58.06646729 C23.02040222 58.55623047 22.58220154 59.04599365 22.13072205 59.55059814 C14.28162145 67.86962599 14.28162145 67.86962599 8.02110291 77.25396729 C12.50505594 77.37775974 16.98809893 77.46839299 21.47325134 77.52862549 C22.99816721 77.55373832 24.52296306 77.58783611 26.04747009 77.63116455 C28.24210717 77.69196773 30.435151 77.72020616 32.63047791 77.74224854 C33.95015564 77.76843262 35.26983337 77.7946167 36.62950134 77.82159424 C40.20179381 77.56763232 40.20179381 77.56763232 42.48301697 74.72344971 C43.24436951 73.50105591 43.24436951 73.50105591 44.02110291 72.25396729 C42.57189702 67.55923445 39.80053642 64.52821404 36.45860291 61.06646729 C31.12501857 55.46179861 31.12501857 55.46179861 30.02110291 53.25396729 C27.77792948 53.0209844 27.77792948 53.0209844 25.95469666 55.27349854 Z M63.02110291 60.25396729 C67.97110291 60.58396729 72.92110291 60.91396729 78.02110291 61.25396729 C78.35110291 62.90396729 78.68110291 64.55396729 79.02110291 66.25396729 C78.02110291 67.25396729 78.02110291 67.25396729 76.07505798 67.33233643 C75.23869812 67.31807617 74.40233826 67.30381592 73.54063416 67.28912354 C72.1648822 67.29782471 72.1648822 67.29782471 70.76133728 67.30670166 C68.82894406 67.31314727 66.89625359 67.29285808 64.96446228 67.24420166 C59.50947556 67.2889488 59.50947556 67.2889488 55.00694275 70.06207275 C52.25389365 73.33341068 52.25389365 73.33341068 51.02110291 77.25396729 C68.51110291 77.25396729 86.00110291 77.25396729 104.02110291 77.25396729 C102.70110291 74.94396729 101.38110291 72.63396729 100.02110291 70.25396729 C99.46036072 69.08994385 98.89961853 67.92592041 98.32188416 66.72662354 C95.99435013 62.73460545 94.1128826 59.55434005 90.02110291 57.25396729 C82.77520514 55.65920581 67.51215753 53.51738535 63.02110291 60.25396729 Z " fill="#2f394e" transform="translate(7.9788970947265625,56.74603271484375)"/>
<path d="M0 0 C0.7668128 0.00223072 1.5336256 0.00446144 2.32367516 0.00675976 C3.13236738 0.00519977 3.94105961 0.00363978 4.77425766 0.00203252 C7.50510374 -0.00198084 10.23589499 0.00121345 12.96674156 0.00434887 C14.91598099 0.00299498 16.86522016 0.00121512 18.81445885 -0.00096118 C24.12422113 -0.00553695 29.43396409 -0.00374537 34.74372673 -0.0005821 C40.28730384 0.00194076 45.83087924 -0.00039583 51.37445641 -0.00196826 C60.68582012 -0.00379018 69.99717592 -0.00138308 79.30853844 0.00337231 C90.09046056 0.00881497 100.87236377 0.00705233 111.65428543 0.00154591 C120.8933122 -0.00298461 130.13233326 -0.00363608 139.37136078 -0.00101542 C144.89735919 0.00054769 150.4233487 0.00074018 155.94934654 -0.00255191 C161.1432414 -0.00542974 166.33711176 -0.00345658 171.53100395 0.00234234 C173.44307731 0.00367042 175.35515271 0.00327503 177.26722527 0.00107968 C179.86582282 -0.00162997 182.46434057 0.001747 185.06293297 0.00675976 C186.21315217 0.00341368 186.21315217 0.00341368 187.38660812 0 C192.57915422 0.01959356 192.57915422 0.01959356 193.69330406 1.13374341 C193.80180813 2.56545715 193.8423179 4.0024185 193.85443687 5.43818676 C193.86404442 6.35261044 193.87365196 7.26703412 193.88355064 8.2091676 C193.88992546 9.70130528 193.88992546 9.70130528 193.89642906 11.22358716 C193.90212914 12.23844693 193.90782921 13.2533067 193.91370201 14.2989198 C193.92316737 16.45014917 193.92969206 18.60139314 193.93353844 20.75263989 C193.94325261 24.05375791 193.97426533 27.35425585 194.00580406 30.65522778 C194.01233281 32.74051052 194.01758378 34.82579774 194.02142906 36.91108716 C194.03377586 37.90382138 194.04612267 38.8965556 194.05884361 39.91937268 C194.05584251 40.83694851 194.05284142 41.75452435 194.04974937 42.69990551 C194.05521782 43.91449696 194.05521782 43.91449696 194.06079674 45.15362561 C193.93952415 45.80706448 193.81825157 46.46050335 193.69330406 47.13374341 C190.01043483 49.58898956 187.24624644 49.41324508 182.98773766 49.38771069 C181.79875405 49.39239066 181.79875405 49.39239066 180.58575058 49.39716518 C177.92100599 49.40516332 175.25648798 49.3988145 172.59174156 49.39253247 C170.6848595 49.39524152 168.77797849 49.39880197 166.87109947 49.40315259 C161.68526468 49.41228901 156.49950925 49.40872717 151.31367302 49.40239441 C145.89382776 49.39734091 140.47398942 49.40202406 135.05414391 49.40516675 C125.95142964 49.40880829 116.84874779 49.40400236 107.74603844 49.39448559 C97.21289471 49.38360069 86.6798284 49.38712614 76.14668655 49.3981384 C67.11310156 49.40720592 58.07953991 49.40849918 49.04595184 49.40326107 C43.64622414 49.40013842 38.24653286 49.3997401 32.84680748 49.40633404 C27.77104367 49.4120991 22.69537996 49.40812604 17.619627 49.39654553 C15.75354491 49.39389444 13.88745444 49.39467165 12.02137566 49.39907086 C9.48042574 49.40451007 6.93979958 49.39771207 4.39887047 49.38771069 C3.65481138 49.39217213 2.9107523 49.39663358 2.14414597 49.40123022 C-1.56200214 49.37280053 -3.13739871 49.24660822 -6.30669594 47.13374341 C-6.67418861 45.15362561 -6.67418861 45.15362561 -6.66314125 42.69990551 C-6.66614235 41.78232968 -6.66914345 40.86475384 -6.67223549 39.91937268 C-6.65988869 38.92663846 -6.64754189 37.93390423 -6.63482094 36.91108716 C-6.63294777 35.89527066 -6.6310746 34.87945416 -6.62914467 33.83285534 C-6.62241489 31.68336217 -6.60848217 29.53388143 -6.58794594 27.38447583 C-6.55679157 24.08138253 -6.54697703 20.77876591 -6.54107094 17.47554028 C-6.53190143 15.39155004 -6.52152583 13.30756469 -6.50982094 11.22358716 C-6.50557106 10.2288287 -6.50132118 9.23407025 -6.49694252 8.2091676 C-6.48733498 7.29474392 -6.47772743 6.38032025 -6.46782875 5.43818676 C-6.46100075 4.62925473 -6.45417274 3.82032269 -6.44713783 2.98687756 C-6.14609476 -0.98539294 -3.33393601 0.01258028 0 0 Z M1.69330406 8.13374341 C1.69330406 18.69374341 1.69330406 29.25374341 1.69330406 40.13374341 C62.41330406 40.13374341 123.13330406 40.13374341 185.69330406 40.13374341 C185.69330406 29.57374341 185.69330406 19.01374341 185.69330406 8.13374341 C124.97330406 8.13374341 64.25330406 8.13374341 1.69330406 8.13374341 Z " fill="#2f394e" transform="translate(6.306695938110352,3.866256594657898)"/>
<path d="M0 0 C1.009487 -0.00563965 2.018974 -0.0112793 3.05905151 -0.01708984 C4.16564117 -0.01304138 5.27223083 -0.00899292 6.41235352 -0.00482178 C7.57840118 -0.00832642 8.74444885 -0.01183105 9.9458313 -0.01544189 C13.81103418 -0.0242646 17.67605493 -0.01840803 21.54125977 -0.01165771 C24.22021717 -0.01300421 26.89916899 -0.01494136 29.578125 -0.01745605 C35.19704166 -0.0210955 40.81590577 -0.01629718 46.43481445 -0.0067749 C52.9326381 0.00410964 59.43033625 0.00058404 65.92815685 -0.01042771 C71.50529906 -0.01950121 77.08240346 -0.02078557 82.65955067 -0.01555037 C85.99130985 -0.01243101 89.32299703 -0.01280466 92.65475464 -0.01862335 C96.36831223 -0.02368506 100.0816266 -0.01598308 103.79516602 -0.00482178 C104.90175568 -0.00887024 106.00834534 -0.0129187 107.14846802 -0.01708984 C108.15795502 -0.0114502 109.16744202 -0.00581055 110.20751953 0 C111.52490868 0.00113108 111.52490868 0.00113108 112.86891174 0.002285 C115.10375977 0.25396729 115.10375977 0.25396729 118.10375977 2.25396729 C118.47125244 4.23408508 118.47125244 4.23408508 118.46020508 6.68780518 C118.46320618 7.60538101 118.46620728 8.52295685 118.46929932 9.46833801 C118.45077911 10.95743935 118.45077911 10.95743935 118.43188477 12.47662354 C118.4300116 13.49244003 118.42813843 14.50825653 118.4262085 15.55485535 C118.41947872 17.70434852 118.405546 19.85382926 118.38500977 22.00323486 C118.3538554 25.30632816 118.34404085 28.60894478 118.33813477 31.91217041 C118.32896526 33.99616065 118.31858966 36.080146 118.30688477 38.16412354 C118.30263489 39.15888199 118.29838501 40.15364044 118.29400635 41.17854309 C118.2843988 42.09296677 118.27479126 43.00739044 118.26489258 43.94952393 C118.25806458 44.75845596 118.25123657 45.567388 118.24420166 46.40083313 C118.10375977 48.25396729 118.10375977 48.25396729 117.10375977 49.25396729 C115.49918785 49.35213936 113.89028703 49.38028649 112.28271484 49.38095093 C111.23943024 49.38377075 110.19614563 49.38659058 109.12124634 49.38949585 C107.96692108 49.38747162 106.81259583 49.38544739 105.62329102 49.38336182 C104.41530853 49.38511414 103.20732605 49.38686646 101.96273804 49.38867188 C98.64050023 49.39233006 95.31832433 49.39145697 91.99608994 49.38829279 C88.52652653 49.3857688 85.05696585 49.38810683 81.58740234 49.38967896 C75.75984215 49.39150054 69.93229461 49.38909464 64.10473633 49.38433838 C57.35814684 49.37889578 50.61158757 49.38065844 43.86499882 49.38616478 C38.08241803 49.39069624 32.29984636 49.39134631 26.51726437 49.38872612 C23.0592442 49.38716352 19.60123826 49.3869691 16.14321899 49.3902626 C12.29021013 49.39367568 8.43723537 49.38895105 4.58422852 49.38336182 C2.85274063 49.38639816 2.85274063 49.38639816 1.08627319 49.38949585 C-0.47865372 49.38526611 -0.47865372 49.38526611 -2.07519531 49.38095093 C-2.98739334 49.3805739 -3.89959137 49.38019688 -4.83943176 49.37980843 C-6.89624023 49.25396729 -6.89624023 49.25396729 -7.89624023 48.25396729 C-8.0047443 46.82225354 -8.04525407 45.38529219 -8.05737305 43.94952393 C-8.06698059 43.03510025 -8.07658813 42.12067657 -8.08648682 41.17854309 C-8.09073669 40.18378464 -8.09498657 39.18902618 -8.09936523 38.16412354 C-8.10506531 37.14926376 -8.11076538 36.13440399 -8.11663818 35.08879089 C-8.12610354 32.93756152 -8.13262823 30.78631755 -8.13647461 28.6350708 C-8.14618878 25.33395278 -8.1772015 22.03345484 -8.20874023 18.73248291 C-8.21526898 16.64720017 -8.22051995 14.56191295 -8.22436523 12.47662354 C-8.23671204 11.48388931 -8.24905884 10.49115509 -8.26177979 9.46833801 C-8.25877869 8.55076218 -8.25577759 7.63318634 -8.25268555 6.68780518 C-8.25633118 5.87807755 -8.25997681 5.06834991 -8.26373291 4.23408508 C-8.14246033 3.58064621 -8.02118774 2.92720734 -7.89624023 2.25396729 C-4.6450382 0.08649926 -3.75505926 0.003224 0 0 Z M0.10375977 9.25396729 C0.10375977 19.81396729 0.10375977 30.37396729 0.10375977 41.25396729 C36.40375977 41.25396729 72.70375977 41.25396729 110.10375977 41.25396729 C110.10375977 30.69396729 110.10375977 20.13396729 110.10375977 9.25396729 C73.80375977 9.25396729 37.50375977 9.25396729 0.10375977 9.25396729 Z " fill="#2f394e" transform="translate(81.896240234375,146.74603271484375)"/>
<path d="M0 0 C1.27472168 -0.00630432 2.54944336 -0.01260864 3.86279297 -0.019104 C5.26009254 -0.01552433 6.65739087 -0.01142239 8.0546875 -0.00683594 C9.48193427 -0.00818265 10.90918059 -0.01012323 12.33642578 -0.01263428 C15.32914595 -0.01558528 18.32174681 -0.01128876 21.31445312 -0.00195312 C25.15485123 0.00944151 28.99496982 0.00288189 32.83535767 -0.00909805 C35.7829805 -0.01631737 38.73053681 -0.01402842 41.67816162 -0.00884247 C43.09438103 -0.00750616 44.51060644 -0.00915303 45.92681885 -0.01380157 C47.90433643 -0.01886768 49.88187512 -0.00978001 51.859375 0 C53.54909424 0.00238678 53.54909424 0.00238678 55.27294922 0.00482178 C57.9296875 0.25878906 57.9296875 0.25878906 59.9296875 2.25878906 C60.1280835 4.86802311 60.20244726 7.37111433 60.18847656 9.98144531 C60.1919812 10.77831757 60.19548584 11.57518982 60.19909668 12.39620972 C60.20792028 15.03799069 60.20206268 17.67950523 60.1953125 20.32128906 C60.19665897 22.15210013 60.19859935 23.98291086 60.20111084 25.8137207 C60.20406295 29.65384317 60.19976167 33.4938727 60.19042969 37.33398438 C60.1790351 42.263976 60.1855941 47.19374989 60.19757462 52.12373352 C60.20479087 55.90516815 60.20250637 59.68655089 60.19731903 63.46798706 C60.19598188 65.2861229 60.19763252 67.1042634 60.20227814 68.9223938 C60.20733954 71.46043432 60.19963873 73.9981189 60.18847656 76.53613281 C60.19252502 77.29256073 60.19657349 78.04898865 60.20074463 78.82833862 C60.15821611 84.03026046 60.15821611 84.03026046 57.9296875 86.25878906 C55.27294922 86.51275635 55.27294922 86.51275635 51.859375 86.51757812 C49.94729248 86.52703461 49.94729248 86.52703461 47.99658203 86.53668213 C46.59928246 86.53310245 45.20198413 86.52900052 43.8046875 86.52441406 C42.37744073 86.52576077 40.95019441 86.52770135 39.52294922 86.5302124 C36.53022905 86.5331634 33.53762819 86.52886688 30.54492188 86.51953125 C26.70452377 86.50813662 22.86440518 86.51469623 19.02401733 86.52667618 C16.0763945 86.53389549 13.12883819 86.53160655 10.18121338 86.52642059 C8.76499397 86.52508429 7.34876856 86.52673116 5.93255615 86.5313797 C3.95503857 86.53644581 1.97749988 86.52735814 0 86.51757812 C-1.68971924 86.51519135 -1.68971924 86.51519135 -3.41357422 86.51275635 C-6.0703125 86.25878906 -6.0703125 86.25878906 -8.0703125 84.25878906 C-8.2687085 81.64955501 -8.34307226 79.14646379 -8.32910156 76.53613281 C-8.33435852 75.34082443 -8.33435852 75.34082443 -8.33972168 74.12136841 C-8.34854528 71.47958744 -8.34268768 68.8380729 -8.3359375 66.19628906 C-8.33728397 64.36547799 -8.33922435 62.53466727 -8.34173584 60.70385742 C-8.34468795 56.86373496 -8.34038667 53.02370543 -8.33105469 49.18359375 C-8.3196601 44.25360212 -8.3262191 39.32382824 -8.33819962 34.3938446 C-8.34541587 30.61240997 -8.34313137 26.83102723 -8.33794403 23.04959106 C-8.33660688 21.23145523 -8.33825752 19.41331472 -8.34290314 17.59518433 C-8.34796454 15.0571438 -8.34026373 12.51945923 -8.32910156 9.98144531 C-8.33315002 9.2250174 -8.33719849 8.46858948 -8.34136963 7.6892395 C-8.28503106 0.79812656 -6.6220371 0.00935383 0 0 Z M-0.0703125 9.25878906 C-0.0703125 31.69878906 -0.0703125 54.13878906 -0.0703125 77.25878906 C17.0896875 77.25878906 34.2496875 77.25878906 51.9296875 77.25878906 C51.9296875 54.81878906 51.9296875 32.37878906 51.9296875 9.25878906 C34.7696875 9.25878906 17.6096875 9.25878906 -0.0703125 9.25878906 Z " fill="#2f394e" transform="translate(140.0703125,56.7412109375)"/>
<path d="M0 0 C1.22814926 -0.00945648 2.45629852 -0.01891296 3.72166443 -0.02865601 C5.06322552 -0.0232857 6.40478368 -0.0171326 7.74633789 -0.01025391 C9.12252456 -0.01227509 10.49871018 -0.01518689 11.87489319 -0.01895142 C14.75914711 -0.02337424 17.64312225 -0.01694643 20.52734375 -0.00292969 C24.22079431 0.01414656 27.91359012 0.00433136 31.60701656 -0.01364708 C34.4492331 -0.02450003 37.29129505 -0.02103146 40.13351631 -0.0132637 C41.49505249 -0.01126502 42.85660279 -0.01370935 44.21812248 -0.02070236 C46.12327676 -0.02833894 48.02848035 -0.01463141 49.93359375 0 C51.55883217 0.00358017 51.55883217 0.00358017 53.21690369 0.00723267 C56.42562854 0.44152914 57.81430353 1.03892773 60.03149414 3.38818359 C60.52597046 5.40589905 60.52597046 5.40589905 60.51733398 7.73608398 C60.52656387 9.04743065 60.52656387 9.04743065 60.53598022 10.38526917 C60.52160919 11.32595749 60.50723816 12.26664581 60.49243164 13.23583984 C60.4915152 14.20347763 60.49059875 15.17111542 60.48965454 16.16807556 C60.48361265 18.21325588 60.46784908 20.25842712 60.44311523 22.3034668 C60.40659447 25.44206153 60.40209588 28.57947668 60.40258789 31.71826172 C60.39275756 33.70329801 60.38110092 35.68832628 60.36743164 37.67333984 C60.36520599 38.6160524 60.36298035 39.55876495 60.36068726 40.53004456 C60.34792755 41.4011235 60.33516785 42.27220245 60.32202148 43.16967773 C60.31058609 44.32192589 60.31058609 44.32192589 60.29891968 45.49745178 C60.03149414 47.38818359 60.03149414 47.38818359 58.03149414 49.38818359 C55.33679199 49.64215088 55.33679199 49.64215088 51.86938477 49.64697266 C50.57464233 49.65327698 49.2798999 49.6595813 47.94592285 49.66607666 C46.52652857 49.66249699 45.10713553 49.65839505 43.68774414 49.65380859 C42.23807714 49.65515529 40.78841057 49.65709585 39.33874512 49.65960693 C36.29894719 49.66255801 33.25926671 49.65826116 30.21948242 49.64892578 C26.31855165 49.63753115 22.41789607 49.64409073 18.5169754 49.65607071 C15.52302976 49.66328981 12.52914961 49.66100117 9.53520203 49.65581512 C8.09665393 49.65447876 6.65809993 49.65612589 5.21955872 49.66077423 C3.2109081 49.66583999 1.20223671 49.65675303 -0.80639648 49.64697266 C-1.95064087 49.64538147 -3.09488525 49.64379028 -4.27380371 49.64215088 C-6.96850586 49.38818359 -6.96850586 49.38818359 -8.96850586 47.38818359 C-9.22920227 45.49745178 -9.22920227 45.49745178 -9.24316406 43.16967773 C-9.25269608 42.29859879 -9.26222809 41.42751984 -9.27204895 40.53004456 C-9.27113754 39.587332 -9.27022614 38.64461945 -9.26928711 37.67333984 C-9.27357224 36.70665878 -9.27785736 35.73997772 -9.28227234 34.7440033 C-9.28802198 32.69710067 -9.28851125 30.6501776 -9.28417969 28.60327148 C-9.28102205 25.46676846 -9.30446308 22.33121035 -9.32983398 19.19482422 C-9.33210709 17.20849729 -9.33281042 15.22216781 -9.33178711 13.23583984 C-9.34099686 12.29515152 -9.3502066 11.3544632 -9.35969543 10.38526917 C-9.35346664 9.51103806 -9.34723785 8.63680695 -9.34082031 7.73608398 C-9.34144974 6.96712296 -9.34207916 6.19816193 -9.34272766 5.40589905 C-8.96850586 3.38818359 -8.96850586 3.38818359 -7.81826782 1.64070129 C-5.17233285 -0.15092404 -3.18065757 0.00701169 0 0 Z M0.03149414 9.38818359 C0.03149414 19.94818359 0.03149414 30.50818359 0.03149414 41.38818359 C16.86149414 41.38818359 33.69149414 41.38818359 51.03149414 41.38818359 C51.03149414 30.82818359 51.03149414 20.26818359 51.03149414 9.38818359 C34.20149414 9.38818359 17.37149414 9.38818359 0.03149414 9.38818359 Z " fill="#2f394e" transform="translate(8.968505859375,146.61181640625)"/>
<path d="M0 0 C1.19074631 0.00607269 1.19074631 0.00607269 2.4055481 0.01226807 C3.6593779 0.00701111 3.6593779 0.00701111 4.9385376 0.00164795 C7.71017689 -0.00717701 10.48156232 -0.00131755 13.25320435 0.00543213 C15.17369638 0.0040857 17.09418809 0.00214535 19.01467896 -0.00036621 C23.0431136 -0.00331851 27.07145967 0.00098357 31.09988403 0.01031494 C36.27200878 0.02170953 41.44392597 0.01515062 46.61604309 0.00317001 C50.5827695 -0.00404573 54.54944644 -0.00176197 58.51617432 0.0034256 C60.42362492 0.00476289 62.33107997 0.00311163 64.23852539 -0.00153351 C66.90109206 -0.00659407 69.5633193 0.00110477 72.2258606 0.01226807 C73.01969147 0.0082196 73.81352234 0.00417114 74.63140869 0 C80.08717606 0.04252885 80.08717606 0.04252885 82.31570435 2.27105713 C82.12820435 4.77105713 82.12820435 4.77105713 81.31570435 7.27105713 C77.58919855 9.75539433 74.71581425 9.55279856 70.40359497 9.52984619 C69.59842941 9.53335083 68.79326385 9.53685547 67.96369934 9.54046631 C65.29969688 9.5492756 62.63595955 9.54343733 59.97195435 9.53668213 C58.1225479 9.53802901 56.2731418 9.53996974 54.42373657 9.54248047 C50.54670848 9.54543064 46.66977251 9.5411375 42.79275513 9.53179932 C37.81917234 9.52040485 32.8458054 9.52696489 27.87223053 9.53894424 C24.05301279 9.54616571 20.23384635 9.54387359 16.41462708 9.53868866 C14.58057123 9.53735296 12.74651076 9.53899711 10.91246033 9.54364777 C8.35078564 9.54871769 5.7894622 9.54099626 3.22781372 9.52984619 C2.08689522 9.53591888 2.08689522 9.53591888 0.92292786 9.54211426 C-2.8262725 9.51182883 -4.48306476 9.40521106 -7.68429565 7.27105713 C-7.99679565 4.77105713 -7.99679565 4.77105713 -7.68429565 2.27105713 C-5.13244558 -0.28079294 -3.47977913 0.0271256 0 0 Z " fill="#2f394e" transform="translate(43.684295654296875,30.72894287109375)"/>
<path d="M0 0 C0.64750214 -0.00511093 1.29500427 -0.01022186 1.96212769 -0.01548767 C4.10188041 -0.02938412 6.24131104 -0.02842691 8.38110352 -0.02612305 C9.86939107 -0.03001003 11.35767752 -0.0343447 12.84596252 -0.03910828 C15.96554154 -0.04657063 19.08500739 -0.04627919 22.20458984 -0.04101562 C26.20066499 -0.03522156 30.19627655 -0.05214995 34.19227505 -0.0753603 C37.26608485 -0.09009845 40.33978303 -0.09096924 43.4136219 -0.08785057 C44.88681011 -0.08836377 46.36000456 -0.09360125 47.83315849 -0.10366249 C49.89428626 -0.11601146 51.95451148 -0.1092456 54.015625 -0.09765625 C55.18794174 -0.09828568 56.36025848 -0.0989151 57.56809998 -0.0995636 C60.82767168 0.30644054 62.19600012 1.06771845 64.57250977 3.2746582 C64.26000977 5.6496582 64.26000977 5.6496582 63.57250977 8.2746582 C59.99210401 10.66159538 58.39851693 10.53258813 54.14501953 10.54931641 C53.4975174 10.55442734 52.85001526 10.55953827 52.18289185 10.56480408 C50.04313913 10.57870053 47.90370849 10.57774332 45.76391602 10.57543945 C44.27562846 10.57932643 42.78734201 10.58366111 41.29905701 10.58842468 C38.17947799 10.59588703 35.06001214 10.5955956 31.94042969 10.59033203 C27.94435454 10.58453797 23.94874298 10.60146636 19.95274448 10.6246767 C16.87893468 10.63941486 13.8052365 10.64028565 10.73139763 10.63716698 C9.25820943 10.63768017 7.78501497 10.64291765 6.31186104 10.6529789 C4.25073327 10.66532786 2.19050805 10.658562 0.12939453 10.64697266 C-1.04292221 10.64760208 -2.21523895 10.64823151 -3.42308044 10.64888 C-6.68265214 10.24287587 -8.05098059 9.48159796 -10.42749023 7.2746582 C-10.11499023 4.8996582 -10.11499023 4.8996582 -9.42749023 2.2746582 C-5.84708447 -0.11227897 -4.2534974 0.01672827 0 0 Z " fill="#2f394e" transform="translate(116.427490234375,166.725341796875)"/>
<path d="M0 0 C4.33115517 2.28815745 7.16251098 4.40627745 9 9 C9.70241555 13.68277033 9.47489688 17.03194098 7.375 21.3125 C3.58175766 25.60485318 0.83391359 27.76712208 -4.9375 28.5 C-9.5171542 28.24557477 -12.3037846 26.68156803 -16 24 C-19.02653463 20.26727396 -19.83531697 16.77580801 -20 12 C-18.27848603 6.12659941 -15.84127304 3.42923507 -11 0 C-7.13273219 -1.28908927 -3.89196681 -0.95087826 0 0 Z M-10 10 C-11.00635246 12.36462492 -11.00635246 12.36462492 -11 15 C-9.66846734 17.30504044 -9.66846734 17.30504044 -8 19 C-3.65815798 18.81535634 -3.65815798 18.81535634 0 17 C0.41702122 14.0842309 0.41702122 14.0842309 0 11 C-1.7109211 9.02901574 -1.7109211 9.02901574 -4 8 C-7.18490007 7.7226499 -7.18490007 7.7226499 -10 10 Z " fill="#2f394e" transform="translate(59,70)"/>
<path d="M0 0 C3.97727594 2.27477293 6.54387347 4.63162042 8 9 C7.99161585 11.54878041 7.87097041 14.07964364 7.7421875 16.625 C8.05530312 19.50945903 8.91020007 20.10766148 11 22 C10.9375 24.5625 10.9375 24.5625 10 27 C7.9375 28.3125 7.9375 28.3125 6 29 C5.154375 28.319375 4.30875 27.63875 3.4375 26.9375 C-0.7675786 24.56736479 -2.3636339 25.25486973 -7 26 C-11.19727077 24.43631089 -14.11349113 22.42104755 -17 19 C-18.20643566 15.38069302 -18.32268559 12.80768995 -18 9 C-13.74660495 1.10083777 -8.84541376 -1.70938978 0 0 Z M-9 10 C-9.04063832 11.66617115 -9.042721 13.33388095 -9 15 C-6.67145537 16.19838209 -6.67145537 16.19838209 -4 17 C-3.01 16.34 -2.02 15.68 -1 15 C-0.66656449 12.45792029 -0.66656449 12.45792029 -1 10 C-2.11836224 8.65595225 -2.11836224 8.65595225 -5 8.875 C-7.88163776 8.65595225 -7.88163776 8.65595225 -9 10 Z " fill="#2f394e" transform="translate(174,14)"/>
<path d="M0 0 C1.29422379 0.00212242 1.29422379 0.00212242 2.61459351 0.00428772 C5.3759098 0.00989437 8.13714562 0.02244798 10.8984375 0.03515625 C12.768228 0.04017039 14.63801976 0.04473345 16.5078125 0.04882812 C21.09638527 0.05986596 25.68489773 0.07713505 30.2734375 0.09765625 C30.9334375 1.74765625 31.5934375 3.39765625 32.2734375 5.09765625 C30.78344727 7.06884766 30.78344727 7.06884766 28.2734375 9.09765625 C25.41924325 9.47130578 22.96100942 9.61262703 20.11328125 9.55859375 C19.32699844 9.55767731 18.54071564 9.55676086 17.73060608 9.55581665 C16.0722142 9.54978655 14.41383292 9.53405808 12.75561523 9.50927734 C10.21622651 9.47273237 7.67829632 9.46825835 5.13867188 9.46875 C3.52602905 9.45891968 1.9133961 9.44726304 0.30078125 9.43359375 C-0.45864273 9.4313681 -1.21806671 9.42914246 -2.00050354 9.42684937 C-5.76609821 9.3589477 -7.51730426 9.23716174 -10.7265625 7.09765625 C-10.9140625 3.97265625 -10.9140625 3.97265625 -10.7265625 1.09765625 C-7.39500999 -0.56812 -3.66120191 -0.02242231 0 0 Z " fill="#2f394e" transform="translate(155.7265625,102.90234375)"/>
<path d="M0 0 C1.21720482 0.00136711 1.21720482 0.00136711 2.45899963 0.00276184 C3.29250443 -0.00152328 4.12600922 -0.00580841 4.98477173 -0.01022339 C6.74920238 -0.01597126 8.51365674 -0.01646359 10.27809143 -0.01213074 C12.98008121 -0.00897336 15.68097367 -0.03241436 18.38282776 -0.05778503 C20.095717 -0.06005822 21.80860919 -0.06076143 23.52149963 -0.05973816 C24.33094528 -0.06894791 25.14039093 -0.07815765 25.97436523 -0.08764648 C31.62450201 -0.04097733 31.62450201 -0.04097733 33.80569458 1.69790649 C35.05665588 3.30354309 35.05665588 3.30354309 34.86915588 5.36604309 C34.05665588 7.30354309 34.05665588 7.30354309 32.05665588 9.30354309 C29.21125446 9.50344536 26.46527805 9.58331285 23.61915588 9.56916809 C22.78327942 9.57108154 21.94740295 9.572995 21.0861969 9.57496643 C19.31755777 9.57632845 17.54890866 9.57263085 15.7802887 9.56428528 C13.06749595 9.55358584 10.35536545 9.56417985 7.64259338 9.57698059 C5.92644608 9.575659 4.2102992 9.57309661 2.49415588 9.56916809 C1.27224548 9.57524078 1.27224548 9.57524078 0.02565002 9.58143616 C-5.71342484 9.53346237 -5.71342484 9.53346237 -7.94334412 7.30354309 C-8.19334412 4.80354309 -8.19334412 4.80354309 -7.94334412 2.30354309 C-5.34877409 -0.29102694 -3.53646636 0.04488907 0 0 Z " fill="#2f394e" transform="translate(152.94334411621094,86.69645690917969)"/>
<path d="M0 0 C0.78532608 -0.0066568 1.57065216 -0.0133136 2.379776 -0.02017212 C4.03986266 -0.03029165 5.69998995 -0.03498935 7.36010742 -0.03466797 C9.89765529 -0.03904096 12.43346305 -0.07536422 14.97070312 -0.11328125 C16.58462947 -0.11914967 18.19856408 -0.1231189 19.8125 -0.125 C20.94859962 -0.14655655 20.94859962 -0.14655655 22.10765076 -0.16854858 C25.66036813 -0.13779174 27.61237113 0.0651909 30.49047852 2.22802734 C31.97265625 4.3359375 31.97265625 4.3359375 31.84765625 6.5234375 C30.97265625 8.3359375 30.97265625 8.3359375 28.97265625 9.3359375 C26.15180096 9.4350264 23.35616617 9.47575998 20.53515625 9.46875 C19.69927979 9.46970673 18.86340332 9.47066345 18.00219727 9.47164917 C16.23356043 9.47233018 14.4649211 9.47048141 12.69628906 9.46630859 C9.98366704 9.46095921 7.2712106 9.46625625 4.55859375 9.47265625 C2.84244755 9.47199545 1.12630145 9.47071426 -0.58984375 9.46875 C-1.81175415 9.47178635 -1.81175415 9.47178635 -3.05834961 9.47488403 C-8.79742447 9.45089714 -8.79742447 9.45089714 -11.02734375 8.3359375 C-11.21484375 5.4609375 -11.21484375 5.4609375 -11.02734375 2.3359375 C-7.29133439 -0.15473541 -4.32936642 0.01268809 0 0 Z " fill="#2f394e" transform="translate(156.02734375,70.6640625)"/>
<path d="M0 0 C0.95455078 -0.02449219 1.90910156 -0.04898438 2.89257812 -0.07421875 C9.88574845 -0.10358126 9.88574845 -0.10358126 13.23046875 2.26171875 C14.5625 4.375 14.5625 4.375 14.4375 6.5625 C13.5625 8.375 13.5625 8.375 11.5625 9.375 C7.56800593 9.64335974 3.56499714 9.60655531 -0.4375 9.625 C-1.55640625 9.645625 -2.6753125 9.66625 -3.828125 9.6875 C-4.89546875 9.69265625 -5.9628125 9.6978125 -7.0625 9.703125 C-8.04476562 9.7124707 -9.02703125 9.72181641 -10.0390625 9.73144531 C-11.22628906 9.55500488 -11.22628906 9.55500488 -12.4375 9.375 C-14.4375 6.375 -14.4375 6.375 -14.25 4.3125 C-11.87040499 -1.36191887 -5.09887144 0.00685793 0 0 Z " fill="#2f394e" transform="translate(173.4375,117.625)"/>
<path d="M0 0 C2.625 0.9375 2.625 0.9375 5 2 C5 3.98 5 5.96 5 8 C3.35 8.66 1.7 9.32 0 10 C-1.32 8.68 -2.64 7.36 -4 6 C-2.25 1.125 -2.25 1.125 0 0 Z " fill="#2f394e" transform="translate(95,167)"/>
<path d="M0 0 C0.78375 0.04125 1.5675 0.0825 2.375 0.125 C3.035 1.775 3.695 3.425 4.375 5.125 C3.055 6.445 1.735 7.765 0.375 9.125 C-2.1 8.135 -2.1 8.135 -4.625 7.125 C-4.75 4.75 -4.75 4.75 -4.625 2.125 C-2.625 0.125 -2.625 0.125 0 0 Z " fill="#2f394e" transform="translate(136.625,30.875)"/>
<path d="M0 0 C2.625 0.625 2.625 0.625 5 2 C6 3.9375 6 3.9375 6 6 C4.875 7.8125 4.875 7.8125 3 9 C-1.42105263 8.57894737 -1.42105263 8.57894737 -3 7 C-3.25 4.5625 -3.25 4.5625 -3 2 C-2.01 1.34 -1.02 0.68 0 0 Z " fill="#2f394e" transform="translate(148,118)"/>
</svg>
